<svg width="100%" height="100%" viewBox="0.00 0.00 366.00 525.00" xmlns="http://www.w3.org/2000/svg" xmlns:xlink="http://www.w3.org/1999/xlink">
	<g id="graph0" class="graph" transform="scale(1 1) rotate(0) translate(208.2 262.5)">
		<title>dfb_call</title>
		<polygon fill="white" stroke="none" points="-208.2,262.5 -208.2,-262.5 157.8,-262.5 157.8,262.5 -208.2,262.5" />
		<g id="clust1" class="cluster">
			<title>cluster_initial</title>
			<polygon fill="WhiteSmoke" stroke="SteelBlue" points="-204.2,-173.5 -204.2,-258.5 -98.2,-258.5 -98.2,-173.5 -204.2,-173.5" />
			<text text-anchor="middle" x="-151.2" y="-248.1" font-family="Arial" font-size="8.00">initial</text>
		</g>
		<g id="clust3" class="cluster">
			<title>cluster_dataRead</title>
			<polygon fill="WhiteSmoke" stroke="SteelBlue" points="47.8,258.5 47.8,-42.5 153.8,-42.5 153.8,258.5 47.8,258.5" />
			<text text-anchor="middle" x="100.8" y="-32.1" font-family="Arial" font-size="8.00">dataRead</text>
		</g>
		<g id="clust2" class="cluster">
			<title>cluster_wait_for_in1</title>
			<polygon fill="WhiteSmoke" stroke="SteelBlue" points="-78.2,150.5 -78.2,-150.5 27.8,-150.5 27.8,150.5 -78.2,150.5" />
			<text text-anchor="middle" x="-25.2" y="-140.1" font-family="Arial" font-size="8.00">wait_for_in1</text>
		</g>
		<!-- initial_1 -->
		<g id="node1" class="node">
			<title>initial_1</title>
			<polygon fill="LemonChiffon" stroke="none" points="-196.2,-237 -196.2,-254 -106.2,-254 -106.2,-237 -196.2,-237" />
			<polygon fill="none" stroke="black" points="-196.2,-237 -196.2,-254 -106.2,-254 -106.2,-237 -196.2,-237" />
			<text text-anchor="start" x="-165.2" y="-244" font-family="Arial" font-weight="bold" font-size="10.00">initial</text>
			<polygon fill="AliceBlue" stroke="none" points="-196.2,-222 -196.2,-237 -166.2,-237 -166.2,-222 -196.2,-222" />
			<polygon fill="none" stroke="black" points="-196.2,-222 -196.2,-237 -166.2,-237 -166.2,-222 -196.2,-222" />
			<text text-anchor="start" x="-193.2" y="-227.6" font-family="Arial" font-size="8.00">Cycle:</text>
			<polygon fill="none" stroke="black" points="-166.2,-222 -166.2,-237 -106.2,-237 -106.2,-222 -166.2,-222" />
			<text text-anchor="start" x="-163.2" y="-227.6" font-family="Arial" font-size="8.00">1</text>
			<polygon fill="AliceBlue" stroke="none" points="-196.2,-207 -196.2,-222 -166.2,-222 -166.2,-207 -196.2,-207" />
			<polygon fill="none" stroke="black" points="-196.2,-207 -196.2,-222 -166.2,-222 -166.2,-207 -196.2,-207" />
			<text text-anchor="start" x="-193.2" y="-212.6" font-family="Arial" font-size="8.00">ACU</text>
			<polygon fill="none" stroke="black" points="-166.2,-207 -166.2,-222 -136.2,-222 -136.2,-207 -166.2,-207" />
			<text text-anchor="start" x="-163.2" y="-212.6" font-family="Arial" font-size="8.00">Beg</text>
			<polygon fill="none" stroke="black" points="-136.2,-207 -136.2,-222 -106.2,-222 -106.2,-207 -136.2,-207" />
			<text text-anchor="start" x="-133.2" y="-212.6" font-family="Arial" font-size="8.00">End</text>
			<polygon fill="AliceBlue" stroke="none" points="-196.2,-192 -196.2,-207 -166.2,-207 -166.2,-192 -196.2,-192" />
			<polygon fill="none" stroke="black" points="-196.2,-192 -196.2,-207 -166.2,-207 -166.2,-192 -196.2,-192" />
			<text text-anchor="start" x="-193.2" y="-197.6" font-family="Arial" font-size="8.00">A.reg</text>
			<polygon fill="none" stroke="black" points="-166.2,-192 -166.2,-207 -136.2,-207 -136.2,-192 -166.2,-192" />
			<polygon fill="none" stroke="black" points="-136.2,-192 -136.2,-207 -106.2,-207 -106.2,-192 -136.2,-192" />
			<text text-anchor="start" x="-133.2" y="-197.6" font-family="Arial" font-size="8.00">0x00</text>
			<polygon fill="AliceBlue" stroke="none" points="-196.2,-177 -196.2,-192 -166.2,-192 -166.2,-177 -196.2,-177" />
			<polygon fill="none" stroke="black" points="-196.2,-177 -196.2,-192 -166.2,-192 -166.2,-177 -196.2,-177" />
			<text text-anchor="start" x="-193.2" y="-182.6" font-family="Arial" font-size="8.00">B.reg</text>
			<polygon fill="none" stroke="black" points="-166.2,-177 -166.2,-192 -136.2,-192 -136.2,-177 -166.2,-177" />
			<polygon fill="none" stroke="black" points="-136.2,-177 -136.2,-192 -106.2,-192 -106.2,-177 -136.2,-177" />
			<text text-anchor="start" x="-133.2" y="-182.6" font-family="Arial" font-size="8.00">0x00</text>
		</g>
		<!-- wait_for_in1_2 -->
		<g id="node2" class="node">
			<title>wait_for_in1_2</title>
			<polygon fill="LemonChiffon" stroke="none" points="-70.2,-129 -70.2,-146 19.8,-146 19.8,-129 -70.2,-129" />
			<polygon fill="none" stroke="black" points="-70.2,-129 -70.2,-146 19.8,-146 19.8,-129 -70.2,-129" />
			<text text-anchor="start" x="-54.2" y="-136" font-family="Arial" font-weight="bold" font-size="10.00">wait_for_in1</text>
			<polygon fill="AliceBlue" stroke="none" points="-70.2,-114 -70.2,-129 -40.2,-129 -40.2,-114 -70.2,-114" />
			<polygon fill="none" stroke="black" points="-70.2,-114 -70.2,-129 -40.2,-129 -40.2,-114 -70.2,-114" />
			<text text-anchor="start" x="-67.2" y="-119.6" font-family="Arial" font-size="8.00">Cycle:</text>
			<polygon fill="none" stroke="black" points="-40.2,-114 -40.2,-129 19.8,-129 19.8,-114 -40.2,-114" />
			<text text-anchor="start" x="-37.2" y="-119.6" font-family="Arial" font-size="8.00">2</text>
			<polygon fill="AliceBlue" stroke="none" points="-70.2,-99 -70.2,-114 -40.2,-114 -40.2,-99 -70.2,-99" />
			<polygon fill="none" stroke="black" points="-70.2,-99 -70.2,-114 -40.2,-114 -40.2,-99 -70.2,-99" />
			<text text-anchor="start" x="-67.2" y="-104.6" font-family="Arial" font-size="8.00">ACU</text>
			<polygon fill="none" stroke="black" points="-40.2,-99 -40.2,-114 -10.2,-114 -10.2,-99 -40.2,-99" />
			<text text-anchor="start" x="-37.2" y="-104.6" font-family="Arial" font-size="8.00">Beg</text>
			<polygon fill="none" stroke="black" points="-10.2,-99 -10.2,-114 19.8,-114 19.8,-99 -10.2,-99" />
			<text text-anchor="start" x="-7.2" y="-104.6" font-family="Arial" font-size="8.00">End</text>
			<polygon fill="AliceBlue" stroke="none" points="-70.2,-84 -70.2,-99 -40.2,-99 -40.2,-84 -70.2,-84" />
			<polygon fill="none" stroke="black" points="-70.2,-84 -70.2,-99 -40.2,-99 -40.2,-84 -70.2,-84" />
			<text text-anchor="start" x="-67.2" y="-89.6" font-family="Arial" font-size="8.00">A.reg</text>
			<polygon fill="none" stroke="black" points="-40.2,-84 -40.2,-99 -10.2,-99 -10.2,-84 -40.2,-84" />
			<text text-anchor="start" x="-37.2" y="-89.6" font-family="Arial" font-size="8.00">0x00</text>
			<polygon fill="none" stroke="black" points="-10.2,-84 -10.2,-99 19.8,-99 19.8,-84 -10.2,-84" />
			<text text-anchor="start" x="-7.2" y="-89.6" font-family="Arial" font-size="8.00">0x00</text>
			<polygon fill="AliceBlue" stroke="none" points="-70.2,-69 -70.2,-84 -40.2,-84 -40.2,-69 -70.2,-69" />
			<polygon fill="none" stroke="black" points="-70.2,-69 -70.2,-84 -40.2,-84 -40.2,-69 -70.2,-69" />
			<text text-anchor="start" x="-67.2" y="-74.6" font-family="Arial" font-size="8.00">B.reg</text>
			<polygon fill="none" stroke="black" points="-40.2,-69 -40.2,-84 -10.2,-84 -10.2,-69 -40.2,-69" />
			<text text-anchor="start" x="-37.2" y="-74.6" font-family="Arial" font-size="8.00">0x00</text>
			<polygon fill="none" stroke="black" points="-10.2,-69 -10.2,-84 19.8,-84 19.8,-69 -10.2,-69" />
			<text text-anchor="start" x="-7.2" y="-74.6" font-family="Arial" font-size="8.00">0x00</text>
		</g>
		<!-- initial_1&#45;&gt;wait_for_in1_2 -->
		<g id="edge1" class="edge">
			<title>initial_1-&gt;wait_for_in1_2</title>
			<path fill="none" stroke="ForestGreen" d="M-101.401,-173.316C-95.3073,-168.092 -89.0406,-162.721 -82.8436,-157.409" />
			<polygon fill="ForestGreen" stroke="ForestGreen" points="-80.3642,-159.893 -75.0494,-150.728 -84.9198,-154.579 -80.3642,-159.893" />
			<text text-anchor="middle" x="-101.623" y="-158.962" font-family="Arial" font-size="8.00">false</text>
		</g>
		<!-- wait_for_in1_7 -->
		<g id="node3" class="node">
			<title>wait_for_in1_7</title>
			<polygon fill="LemonChiffon" stroke="none" points="-70.2,87 -70.2,70 19.8,70 19.8,87 -70.2,87" />
			<polygon fill="none" stroke="black" points="-70.2,87 -70.2,70 19.8,70 19.8,87 -70.2,87" />
			<text text-anchor="start" x="-54.2" y="80" font-family="Arial" font-weight="bold" font-size="10.00">wait_for_in1</text>
			<polygon fill="AliceBlue" stroke="none" points="-70.2,102 -70.2,87 -40.2,87 -40.2,102 -70.2,102" />
			<polygon fill="none" stroke="black" points="-70.2,102 -70.2,87 -40.2,87 -40.2,102 -70.2,102" />
			<text text-anchor="start" x="-67.2" y="96.4" font-family="Arial" font-size="8.00">Cycle:</text>
			<polygon fill="none" stroke="black" points="-40.2,102 -40.2,87 19.8,87 19.8,102 -40.2,102" />
			<text text-anchor="start" x="-37.2" y="96.4" font-family="Arial" font-size="8.00">7</text>
			<polygon fill="AliceBlue" stroke="none" points="-70.2,117 -70.2,102 -40.2,102 -40.2,117 -70.2,117" />
			<polygon fill="none" stroke="black" points="-70.2,117 -70.2,102 -40.2,102 -40.2,117 -70.2,117" />
			<text text-anchor="start" x="-67.2" y="111.4" font-family="Arial" font-size="8.00">ACU</text>
			<polygon fill="none" stroke="black" points="-40.2,117 -40.2,102 -10.2,102 -10.2,117 -40.2,117" />
			<text text-anchor="start" x="-37.2" y="111.4" font-family="Arial" font-size="8.00">Beg</text>
			<polygon fill="none" stroke="black" points="-10.2,117 -10.2,102 19.8,102 19.8,117 -10.2,117" />
			<text text-anchor="start" x="-7.2" y="111.4" font-family="Arial" font-size="8.00">End</text>
			<polygon fill="AliceBlue" stroke="none" points="-70.2,132 -70.2,117 -40.2,117 -40.2,132 -70.2,132" />
			<polygon fill="none" stroke="black" points="-70.2,132 -70.2,117 -40.2,117 -40.2,132 -70.2,132" />
			<text text-anchor="start" x="-67.2" y="126.4" font-family="Arial" font-size="8.00">A.reg</text>
			<polygon fill="none" stroke="black" points="-40.2,132 -40.2,117 -10.2,117 -10.2,132 -40.2,132" />
			<text text-anchor="start" x="-37.2" y="126.4" font-family="Arial" font-size="8.00">0x00</text>
			<polygon fill="none" stroke="black" points="-10.2,132 -10.2,117 19.8,117 19.8,132 -10.2,132" />
			<text text-anchor="start" x="-7.2" y="126.4" font-family="Arial" font-size="8.00">0x00</text>
			<polygon fill="AliceBlue" stroke="none" points="-70.2,147 -70.2,132 -40.2,132 -40.2,147 -70.2,147" />
			<polygon fill="none" stroke="black" points="-70.2,147 -70.2,132 -40.2,132 -40.2,147 -70.2,147" />
			<text text-anchor="start" x="-67.2" y="141.4" font-family="Arial" font-size="8.00">B.reg</text>
			<polygon fill="none" stroke="black" points="-40.2,147 -40.2,132 -10.2,132 -10.2,147 -40.2,147" />
			<text text-anchor="start" x="-37.2" y="141.4" font-family="Arial" font-size="8.00">0x00</text>
			<polygon fill="none" stroke="black" points="-10.2,147 -10.2,132 19.8,132 19.8,147 -10.2,147" />
			<text text-anchor="start" x="-7.2" y="141.4" font-family="Arial" font-size="8.00">0x00</text>
		</g>
		<!-- wait_for_in1_2&#45;&gt;wait_for_in1_7 -->
		<g id="edge5" class="edge">
			<title>wait_for_in1_2-&gt;wait_for_in1_7</title>
			<path fill="none" stroke="Gray" stroke-dasharray="5,2" d="M-25.2,-65.3254C-25.2,-27.4576 -25.2,27.5731 -25.2,65.414" />
		</g>
		<!-- dataRead_6 -->
		<g id="node4" class="node">
			<title>dataRead_6</title>
			<polygon fill="LemonChiffon" stroke="none" points="55.8,-21 55.8,-38 145.8,-38 145.8,-21 55.8,-21" />
			<polygon fill="none" stroke="black" points="55.8,-21 55.8,-38 145.8,-38 145.8,-21 55.8,-21" />
			<text text-anchor="start" x="77.8" y="-28" font-family="Arial" font-weight="bold" font-size="10.00">dataRead</text>
			<polygon fill="AliceBlue" stroke="none" points="55.8,-6 55.8,-21 85.8,-21 85.8,-6 55.8,-6" />
			<polygon fill="none" stroke="black" points="55.8,-6 55.8,-21 85.8,-21 85.8,-6 55.8,-6" />
			<text text-anchor="start" x="58.8" y="-11.6" font-family="Arial" font-size="8.00">Cycle:</text>
			<polygon fill="none" stroke="black" points="85.8,-6 85.8,-21 145.8,-21 145.8,-6 85.8,-6" />
			<text text-anchor="start" x="88.8" y="-11.6" font-family="Arial" font-size="8.00">6</text>
			<polygon fill="AliceBlue" stroke="none" points="55.8,9 55.8,-6 85.8,-6 85.8,9 55.8,9" />
			<polygon fill="none" stroke="black" points="55.8,9 55.8,-6 85.8,-6 85.8,9 55.8,9" />
			<text text-anchor="start" x="58.8" y="3.4" font-family="Arial" font-size="8.00">ACU</text>
			<polygon fill="none" stroke="black" points="85.8,9 85.8,-6 115.8,-6 115.8,9 85.8,9" />
			<text text-anchor="start" x="88.8" y="3.4" font-family="Arial" font-size="8.00">Beg</text>
			<polygon fill="none" stroke="black" points="115.8,9 115.8,-6 145.8,-6 145.8,9 115.8,9" />
			<text text-anchor="start" x="118.8" y="3.4" font-family="Arial" font-size="8.00">End</text>
			<polygon fill="AliceBlue" stroke="none" points="55.8,24 55.8,9 85.8,9 85.8,24 55.8,24" />
			<polygon fill="none" stroke="black" points="55.8,24 55.8,9 85.8,9 85.8,24 55.8,24" />
			<text text-anchor="start" x="58.8" y="18.4" font-family="Arial" font-size="8.00">A.reg</text>
			<polygon fill="none" stroke="black" points="85.8,24 85.8,9 115.8,9 115.8,24 85.8,24" />
			<text text-anchor="start" x="88.8" y="18.4" font-family="Arial" font-size="8.00">0x00</text>
			<polygon fill="none" stroke="black" points="115.8,24 115.8,9 145.8,9 145.8,24 115.8,24" />
			<text text-anchor="start" x="118.8" y="18.4" font-family="Arial" font-size="8.00">0x00</text>
			<polygon fill="AliceBlue" stroke="none" points="55.8,39 55.8,24 85.8,24 85.8,39 55.8,39" />
			<polygon fill="none" stroke="black" points="55.8,39 55.8,24 85.8,24 85.8,39 55.8,39" />
			<text text-anchor="start" x="58.8" y="33.4" font-family="Arial" font-size="8.00">B.reg</text>
			<polygon fill="none" stroke="black" points="85.8,39 85.8,24 115.8,24 115.8,39 85.8,39" />
			<text text-anchor="start" x="88.8" y="33.4" font-family="Arial" font-size="8.00">0x00</text>
			<polygon fill="none" stroke="black" points="115.8,39 115.8,24 145.8,24 145.8,39 115.8,39" />
			<text text-anchor="start" x="118.8" y="33.4" font-family="Arial" font-size="8.00">0x00</text>
		</g>
		<!-- wait_for_in1_2&#45;&gt;dataRead_6 -->
		<g id="edge2" class="edge">
			<title>wait_for_in1_2-&gt;dataRead_6</title>
			<path fill="none" stroke="ForestGreen" d="M24.5985,-65.3155C30.6927,-60.092 36.9594,-54.7205 43.1564,-49.4088" />
			<polygon fill="ForestGreen" stroke="ForestGreen" points="45.6358,-51.8934 50.9506,-42.7281 41.0802,-46.5786 45.6358,-51.8934" />
			<text text-anchor="middle" x="24.3775" y="-50.9622" font-family="Arial" font-size="8.00">false</text>
		</g>
		<!-- dataRead_11 -->
		<g id="node5" class="node">
			<title>dataRead_11</title>
			<polygon fill="LemonChiffon" stroke="none" points="55.8,195 55.8,178 145.8,178 145.8,195 55.8,195" />
			<polygon fill="none" stroke="black" points="55.8,195 55.8,178 145.8,178 145.8,195 55.8,195" />
			<text text-anchor="start" x="77.8" y="188" font-family="Arial" font-weight="bold" font-size="10.00">dataRead</text>
			<polygon fill="AliceBlue" stroke="none" points="55.8,210 55.8,195 85.8,195 85.8,210 55.8,210" />
			<polygon fill="none" stroke="black" points="55.8,210 55.8,195 85.8,195 85.8,210 55.8,210" />
			<text text-anchor="start" x="58.8" y="204.4" font-family="Arial" font-size="8.00">Cycle:</text>
			<polygon fill="none" stroke="black" points="85.8,210 85.8,195 145.8,195 145.8,210 85.8,210" />
			<text text-anchor="start" x="88.8" y="204.4" font-family="Arial" font-size="8.00">11</text>
			<polygon fill="AliceBlue" stroke="none" points="55.8,225 55.8,210 85.8,210 85.8,225 55.8,225" />
			<polygon fill="none" stroke="black" points="55.8,225 55.8,210 85.8,210 85.8,225 55.8,225" />
			<text text-anchor="start" x="58.8" y="219.4" font-family="Arial" font-size="8.00">ACU</text>
			<polygon fill="none" stroke="black" points="85.8,225 85.8,210 115.8,210 115.8,225 85.8,225" />
			<text text-anchor="start" x="88.8" y="219.4" font-family="Arial" font-size="8.00">Beg</text>
			<polygon fill="none" stroke="black" points="115.8,225 115.8,210 145.8,210 145.8,225 115.8,225" />
			<text text-anchor="start" x="118.8" y="219.4" font-family="Arial" font-size="8.00">End</text>
			<polygon fill="AliceBlue" stroke="none" points="55.8,240 55.8,225 85.8,225 85.8,240 55.8,240" />
			<polygon fill="none" stroke="black" points="55.8,240 55.8,225 85.8,225 85.8,240 55.8,240" />
			<text text-anchor="start" x="58.8" y="234.4" font-family="Arial" font-size="8.00">A.reg</text>
			<polygon fill="none" stroke="black" points="85.8,240 85.8,225 115.8,225 115.8,240 85.8,240" />
			<text text-anchor="start" x="88.8" y="234.4" font-family="Arial" font-size="8.00">0x00</text>
			<polygon fill="none" stroke="black" points="115.8,240 115.8,225 145.8,225 145.8,240 115.8,240" />
			<text text-anchor="start" x="118.8" y="234.4" font-family="Arial" font-size="8.00">0x00</text>
			<polygon fill="AliceBlue" stroke="none" points="55.8,255 55.8,240 85.8,240 85.8,255 55.8,255" />
			<polygon fill="none" stroke="black" points="55.8,255 55.8,240 85.8,240 85.8,255 55.8,255" />
			<text text-anchor="start" x="58.8" y="249.4" font-family="Arial" font-size="8.00">B.reg</text>
			<polygon fill="none" stroke="black" points="85.8,255 85.8,240 115.8,240 115.8,255 85.8,255" />
			<text text-anchor="start" x="88.8" y="249.4" font-family="Arial" font-size="8.00">0x00</text>
			<polygon fill="none" stroke="black" points="115.8,255 115.8,240 145.8,240 145.8,255 115.8,255" />
			<text text-anchor="start" x="118.8" y="249.4" font-family="Arial" font-size="8.00">0x00</text>
		</g>
		<!-- wait_for_in1_7&#45;&gt;dataRead_11 -->
		<g id="edge4" class="edge">
			<title>wait_for_in1_7-&gt;dataRead_11</title>
			<path fill="none" stroke="ForestGreen" d="M24.5985,150.684C30.6927,155.908 36.9594,161.279 43.1564,166.591" />
			<polygon fill="ForestGreen" stroke="ForestGreen" points="45.6358,164.107 50.9506,173.272 41.0802,169.421 45.6358,164.107" />
			<text text-anchor="middle" x="24.3775" y="165.038" font-family="Arial" font-size="8.00">false</text>
		</g>
		<!-- dataRead_6&#45;&gt;wait_for_in1_7 -->
		<g id="edge3" class="edge">
			<title>dataRead_6-&gt;wait_for_in1_7</title>
			<path fill="none" stroke="ForestGreen" d="M51.0015,42.6845C44.9073,47.908 38.6406,53.2795 32.4436,58.5912" />
			<polygon fill="ForestGreen" stroke="ForestGreen" points="34.5198,61.4214 24.6494,65.2719 29.9642,56.1066 34.5198,61.4214" />
			<text text-anchor="middle" x="32.2225" y="48.0378" font-family="Arial" font-size="8.00">false</text>
		</g>
	</g>
</svg>