<svg width="100%" height="100%" viewBox="0.00 0.00 449.00 849.00" xmlns="http://www.w3.org/2000/svg" xmlns:xlink="http://www.w3.org/1999/xlink">
	<g id="graph0" class="graph" transform="scale(1 1) rotate(0) translate(178.5 424.5)">
		<title>dfb_call</title>
		<polygon fill="white" stroke="none" points="-178.5,424.5 -178.5,-424.5 270.5,-424.5 270.5,424.5 -178.5,424.5" />
		<g id="clust2" class="cluster">
			<title>cluster_datapath_equals_zero</title>
			<polygon fill="WhiteSmoke" stroke="SteelBlue" points="138.5,204.5 138.5,-312.5 266.5,-312.5 266.5,204.5 138.5,204.5" />
			<text text-anchor="middle" x="202.5" y="-302.1" font-family="Arial" font-size="8.00">datapath_equals_zero</text>
		</g>
		<g id="clust1" class="cluster">
			<title>cluster_init</title>
			<polygon fill="WhiteSmoke" stroke="SteelBlue" points="-174.5,312.5 -174.5,-420.5 -68.5,-420.5 -68.5,312.5 -174.5,312.5" />
			<text text-anchor="middle" x="-121.5" y="-410.1" font-family="Arial" font-size="8.00">init</text>
		</g>
		<g id="clust3" class="cluster">
			<title>cluster_datapath_not_equal_zero</title>
			<polygon fill="WhiteSmoke" stroke="SteelBlue" points="-31,420.5 -31,-96.5 112,-96.5 112,420.5 -31,420.5" />
			<text text-anchor="middle" x="40.5" y="-86.1" font-family="Arial" font-size="8.00">datapath_not_equal_zero</text>
		</g>
		<!-- init_3 -->
		<g id="node1" class="node">
			<title>init_3</title>
			<polygon fill="LemonChiffon" stroke="none" points="-166.5,-399 -166.5,-416 -76.5,-416 -76.5,-399 -166.5,-399" />
			<polygon fill="none" stroke="black" points="-166.5,-399 -166.5,-416 -76.5,-416 -76.5,-399 -166.5,-399" />
			<text text-anchor="start" x="-129.5" y="-406" font-family="Arial" font-weight="bold" font-size="10.00">init</text>
			<polygon fill="AliceBlue" stroke="none" points="-166.5,-384 -166.5,-399 -136.5,-399 -136.5,-384 -166.5,-384" />
			<polygon fill="none" stroke="black" points="-166.5,-384 -166.5,-399 -136.5,-399 -136.5,-384 -166.5,-384" />
			<text text-anchor="start" x="-163.5" y="-389.6" font-family="Arial" font-size="8.00">Cycle:</text>
			<polygon fill="none" stroke="black" points="-136.5,-384 -136.5,-399 -76.5,-399 -76.5,-384 -136.5,-384" />
			<text text-anchor="start" x="-133.5" y="-389.6" font-family="Arial" font-size="8.00">3</text>
			<polygon fill="AliceBlue" stroke="none" points="-166.5,-369 -166.5,-384 -136.5,-384 -136.5,-369 -166.5,-369" />
			<polygon fill="none" stroke="black" points="-166.5,-369 -166.5,-384 -136.5,-384 -136.5,-369 -166.5,-369" />
			<text text-anchor="start" x="-163.5" y="-374.6" font-family="Arial" font-size="8.00">ACU</text>
			<polygon fill="none" stroke="black" points="-136.5,-369 -136.5,-384 -106.5,-384 -106.5,-369 -136.5,-369" />
			<text text-anchor="start" x="-133.5" y="-374.6" font-family="Arial" font-size="8.00">Beg</text>
			<polygon fill="none" stroke="black" points="-106.5,-369 -106.5,-384 -76.5,-384 -76.5,-369 -106.5,-369" />
			<text text-anchor="start" x="-103.5" y="-374.6" font-family="Arial" font-size="8.00">End</text>
			<polygon fill="AliceBlue" stroke="none" points="-166.5,-354 -166.5,-369 -136.5,-369 -136.5,-354 -166.5,-354" />
			<polygon fill="none" stroke="black" points="-166.5,-354 -166.5,-369 -136.5,-369 -136.5,-354 -166.5,-354" />
			<text text-anchor="start" x="-163.5" y="-359.6" font-family="Arial" font-size="8.00">A.reg</text>
			<polygon fill="none" stroke="black" points="-136.5,-354 -136.5,-369 -106.5,-369 -106.5,-354 -136.5,-354" />
			<polygon fill="none" stroke="black" points="-106.5,-354 -106.5,-369 -76.5,-369 -76.5,-354 -106.5,-354" />
			<text text-anchor="start" x="-103.5" y="-359.6" font-family="Arial" font-size="8.00">0x00</text>
			<polygon fill="AliceBlue" stroke="none" points="-166.5,-339 -166.5,-354 -136.5,-354 -136.5,-339 -166.5,-339" />
			<polygon fill="none" stroke="black" points="-166.5,-339 -166.5,-354 -136.5,-354 -136.5,-339 -166.5,-339" />
			<text text-anchor="start" x="-163.5" y="-344.6" font-family="Arial" font-size="8.00">B.reg</text>
			<polygon fill="none" stroke="black" points="-136.5,-339 -136.5,-354 -106.5,-354 -106.5,-339 -136.5,-339" />
			<polygon fill="none" stroke="black" points="-106.5,-339 -106.5,-354 -76.5,-354 -76.5,-339 -106.5,-339" />
			<text text-anchor="start" x="-103.5" y="-344.6" font-family="Arial" font-size="8.00">0x00</text>
		</g>
		<!-- datapath_equals_zero_4 -->
		<g id="node5" class="node">
			<title>datapath_equals_zero_4</title>
			<polygon fill="LemonChiffon" stroke="none" points="146.5,-291 146.5,-308 258.5,-308 258.5,-291 146.5,-291" />
			<polygon fill="none" stroke="black" points="146.5,-291 146.5,-308 258.5,-308 258.5,-291 146.5,-291" />
			<text text-anchor="start" x="149.5" y="-298" font-family="Arial" font-weight="bold" font-size="10.00">datapath_equals_zero</text>
			<polygon fill="AliceBlue" stroke="none" points="146.5,-276 146.5,-291 187.5,-291 187.5,-276 146.5,-276" />
			<polygon fill="none" stroke="black" points="146.5,-276 146.5,-291 187.5,-291 187.5,-276 146.5,-276" />
			<text text-anchor="start" x="149.5" y="-281.6" font-family="Arial" font-size="8.00">Cycle:</text>
			<polygon fill="none" stroke="black" points="187.5,-276 187.5,-291 258.5,-291 258.5,-276 187.5,-276" />
			<text text-anchor="start" x="190.5" y="-281.6" font-family="Arial" font-size="8.00">4</text>
			<polygon fill="AliceBlue" stroke="none" points="146.5,-261 146.5,-276 187.5,-276 187.5,-261 146.5,-261" />
			<polygon fill="none" stroke="black" points="146.5,-261 146.5,-276 187.5,-276 187.5,-261 146.5,-261" />
			<text text-anchor="start" x="149.5" y="-266.6" font-family="Arial" font-size="8.00">ACU</text>
			<polygon fill="none" stroke="black" points="187.5,-261 187.5,-276 222.5,-276 222.5,-261 187.5,-261" />
			<text text-anchor="start" x="190.5" y="-266.6" font-family="Arial" font-size="8.00">Beg</text>
			<polygon fill="none" stroke="black" points="222.5,-261 222.5,-276 258.5,-276 258.5,-261 222.5,-261" />
			<text text-anchor="start" x="225.5" y="-266.6" font-family="Arial" font-size="8.00">End</text>
			<polygon fill="AliceBlue" stroke="none" points="146.5,-246 146.5,-261 187.5,-261 187.5,-246 146.5,-246" />
			<polygon fill="none" stroke="black" points="146.5,-246 146.5,-261 187.5,-261 187.5,-246 146.5,-246" />
			<text text-anchor="start" x="149.5" y="-251.6" font-family="Arial" font-size="8.00">A.reg</text>
			<polygon fill="none" stroke="black" points="187.5,-246 187.5,-261 222.5,-261 222.5,-246 187.5,-246" />
			<text text-anchor="start" x="190.5" y="-251.6" font-family="Arial" font-size="8.00">0x00</text>
			<polygon fill="none" stroke="black" points="222.5,-246 222.5,-261 258.5,-261 258.5,-246 222.5,-246" />
			<text text-anchor="start" x="225.5" y="-251.6" font-family="Arial" font-size="8.00">0x00</text>
			<polygon fill="AliceBlue" stroke="none" points="146.5,-231 146.5,-246 187.5,-246 187.5,-231 146.5,-231" />
			<polygon fill="none" stroke="black" points="146.5,-231 146.5,-246 187.5,-246 187.5,-231 146.5,-231" />
			<text text-anchor="start" x="149.5" y="-236.6" font-family="Arial" font-size="8.00">B.reg</text>
			<polygon fill="none" stroke="black" points="187.5,-231 187.5,-246 222.5,-246 222.5,-231 187.5,-231" />
			<text text-anchor="start" x="190.5" y="-236.6" font-family="Arial" font-size="8.00">0x00</text>
			<polygon fill="none" stroke="black" points="222.5,-231 222.5,-246 258.5,-246 258.5,-231 222.5,-231" />
			<text text-anchor="start" x="225.5" y="-236.6" font-family="Arial" font-size="8.00">0x00</text>
		</g>
		<!-- init_3&#45;&gt;datapath_equals_zero_4 -->
		<g id="edge1" class="edge">
			<title>init_3-&gt;datapath_equals_zero_4</title>
			<path fill="none" stroke="ForestGreen" d="M-68.3608,-360.287C-14.7069,-342.402 68.5985,-314.634 128.658,-294.614" />
			<polygon fill="ForestGreen" stroke="ForestGreen" points="130.083,-297.828 138.463,-291.346 127.87,-291.187 130.083,-297.828" />
			<text text-anchor="middle" x="19.6487" y="-330.05" font-family="Arial" font-size="8.00">DpEQ</text>
		</g>
		<!-- init_8 -->
		<g id="node2" class="node">
			<title>init_8</title>
			<polygon fill="LemonChiffon" stroke="none" points="-166.5,-183 -166.5,-200 -76.5,-200 -76.5,-183 -166.5,-183" />
			<polygon fill="none" stroke="black" points="-166.5,-183 -166.5,-200 -76.5,-200 -76.5,-183 -166.5,-183" />
			<text text-anchor="start" x="-129.5" y="-190" font-family="Arial" font-weight="bold" font-size="10.00">init</text>
			<polygon fill="AliceBlue" stroke="none" points="-166.5,-168 -166.5,-183 -136.5,-183 -136.5,-168 -166.5,-168" />
			<polygon fill="none" stroke="black" points="-166.5,-168 -166.5,-183 -136.5,-183 -136.5,-168 -166.5,-168" />
			<text text-anchor="start" x="-163.5" y="-173.6" font-family="Arial" font-size="8.00">Cycle:</text>
			<polygon fill="none" stroke="black" points="-136.5,-168 -136.5,-183 -76.5,-183 -76.5,-168 -136.5,-168" />
			<text text-anchor="start" x="-133.5" y="-173.6" font-family="Arial" font-size="8.00">8</text>
			<polygon fill="AliceBlue" stroke="none" points="-166.5,-153 -166.5,-168 -136.5,-168 -136.5,-153 -166.5,-153" />
			<polygon fill="none" stroke="black" points="-166.5,-153 -166.5,-168 -136.5,-168 -136.5,-153 -166.5,-153" />
			<text text-anchor="start" x="-163.5" y="-158.6" font-family="Arial" font-size="8.00">ACU</text>
			<polygon fill="none" stroke="black" points="-136.5,-153 -136.5,-168 -106.5,-168 -106.5,-153 -136.5,-153" />
			<text text-anchor="start" x="-133.5" y="-158.6" font-family="Arial" font-size="8.00">Beg</text>
			<polygon fill="none" stroke="black" points="-106.5,-153 -106.5,-168 -76.5,-168 -76.5,-153 -106.5,-153" />
			<text text-anchor="start" x="-103.5" y="-158.6" font-family="Arial" font-size="8.00">End</text>
			<polygon fill="AliceBlue" stroke="none" points="-166.5,-138 -166.5,-153 -136.5,-153 -136.5,-138 -166.5,-138" />
			<polygon fill="none" stroke="black" points="-166.5,-138 -166.5,-153 -136.5,-153 -136.5,-138 -166.5,-138" />
			<text text-anchor="start" x="-163.5" y="-143.6" font-family="Arial" font-size="8.00">A.reg</text>
			<polygon fill="none" stroke="black" points="-136.5,-138 -136.5,-153 -106.5,-153 -106.5,-138 -136.5,-138" />
			<text text-anchor="start" x="-133.5" y="-143.6" font-family="Arial" font-size="8.00">0x00</text>
			<polygon fill="none" stroke="black" points="-106.5,-138 -106.5,-153 -76.5,-153 -76.5,-138 -106.5,-138" />
			<text text-anchor="start" x="-103.5" y="-143.6" font-family="Arial" font-size="8.00">0x00</text>
			<polygon fill="AliceBlue" stroke="none" points="-166.5,-123 -166.5,-138 -136.5,-138 -136.5,-123 -166.5,-123" />
			<polygon fill="none" stroke="black" points="-166.5,-123 -166.5,-138 -136.5,-138 -136.5,-123 -166.5,-123" />
			<text text-anchor="start" x="-163.5" y="-128.6" font-family="Arial" font-size="8.00">B.reg</text>
			<polygon fill="none" stroke="black" points="-136.5,-123 -136.5,-138 -106.5,-138 -106.5,-123 -136.5,-123" />
			<text text-anchor="start" x="-133.5" y="-128.6" font-family="Arial" font-size="8.00">0x00</text>
			<polygon fill="none" stroke="black" points="-106.5,-123 -106.5,-138 -76.5,-138 -76.5,-123 -106.5,-123" />
			<text text-anchor="start" x="-103.5" y="-128.6" font-family="Arial" font-size="8.00">0x00</text>
		</g>
		<!-- init_13 -->
		<g id="node3" class="node">
			<title>init_13</title>
			<polygon fill="LemonChiffon" stroke="none" points="-166.5,33 -166.5,16 -76.5,16 -76.5,33 -166.5,33" />
			<polygon fill="none" stroke="black" points="-166.5,33 -166.5,16 -76.5,16 -76.5,33 -166.5,33" />
			<text text-anchor="start" x="-129.5" y="26" font-family="Arial" font-weight="bold" font-size="10.00">init</text>
			<polygon fill="AliceBlue" stroke="none" points="-166.5,48 -166.5,33 -136.5,33 -136.5,48 -166.5,48" />
			<polygon fill="none" stroke="black" points="-166.5,48 -166.5,33 -136.5,33 -136.5,48 -166.5,48" />
			<text text-anchor="start" x="-163.5" y="42.4" font-family="Arial" font-size="8.00">Cycle:</text>
			<polygon fill="none" stroke="black" points="-136.5,48 -136.5,33 -76.5,33 -76.5,48 -136.5,48" />
			<text text-anchor="start" x="-133.5" y="42.4" font-family="Arial" font-size="8.00">13</text>
			<polygon fill="AliceBlue" stroke="none" points="-166.5,63 -166.5,48 -136.5,48 -136.5,63 -166.5,63" />
			<polygon fill="none" stroke="black" points="-166.5,63 -166.5,48 -136.5,48 -136.5,63 -166.5,63" />
			<text text-anchor="start" x="-163.5" y="57.4" font-family="Arial" font-size="8.00">ACU</text>
			<polygon fill="none" stroke="black" points="-136.5,63 -136.5,48 -106.5,48 -106.5,63 -136.5,63" />
			<text text-anchor="start" x="-133.5" y="57.4" font-family="Arial" font-size="8.00">Beg</text>
			<polygon fill="none" stroke="black" points="-106.5,63 -106.5,48 -76.5,48 -76.5,63 -106.5,63" />
			<text text-anchor="start" x="-103.5" y="57.4" font-family="Arial" font-size="8.00">End</text>
			<polygon fill="AliceBlue" stroke="none" points="-166.5,78 -166.5,63 -136.5,63 -136.5,78 -166.5,78" />
			<polygon fill="none" stroke="black" points="-166.5,78 -166.5,63 -136.5,63 -136.5,78 -166.5,78" />
			<text text-anchor="start" x="-163.5" y="72.4" font-family="Arial" font-size="8.00">A.reg</text>
			<polygon fill="none" stroke="black" points="-136.5,78 -136.5,63 -106.5,63 -106.5,78 -136.5,78" />
			<text text-anchor="start" x="-133.5" y="72.4" font-family="Arial" font-size="8.00">0x00</text>
			<polygon fill="none" stroke="black" points="-106.5,78 -106.5,63 -76.5,63 -76.5,78 -106.5,78" />
			<text text-anchor="start" x="-103.5" y="72.4" font-family="Arial" font-size="8.00">0x00</text>
			<polygon fill="AliceBlue" stroke="none" points="-166.5,93 -166.5,78 -136.5,78 -136.5,93 -166.5,93" />
			<polygon fill="none" stroke="black" points="-166.5,93 -166.5,78 -136.5,78 -136.5,93 -166.5,93" />
			<text text-anchor="start" x="-163.5" y="87.4" font-family="Arial" font-size="8.00">B.reg</text>
			<polygon fill="none" stroke="black" points="-136.5,93 -136.5,78 -106.5,78 -106.5,93 -136.5,93" />
			<text text-anchor="start" x="-133.5" y="87.4" font-family="Arial" font-size="8.00">0x00</text>
			<polygon fill="none" stroke="black" points="-106.5,93 -106.5,78 -76.5,78 -76.5,93 -106.5,93" />
			<text text-anchor="start" x="-103.5" y="87.4" font-family="Arial" font-size="8.00">0x00</text>
		</g>
		<!-- init_8&#45;&gt;init_13 -->
		<g id="edge6" class="edge">
			<title>init_8-&gt;init_13</title>
			<path fill="none" stroke="Gray" stroke-dasharray="5,2" d="M-121.5,-119.325C-121.5,-81.4576 -121.5,-26.4269 -121.5,11.414" />
		</g>
		<!-- datapath_not_equal_zero_9 -->
		<g id="node7" class="node">
			<title>datapath_not_equal_zero_9</title>
			<polygon fill="LemonChiffon" stroke="none" points="-22.5,-75 -22.5,-92 104.5,-92 104.5,-75 -22.5,-75" />
			<polygon fill="none" stroke="black" points="-22.5,-75 -22.5,-92 104.5,-92 104.5,-75 -22.5,-75" />
			<text text-anchor="start" x="-19.5" y="-82" font-family="Arial" font-weight="bold" font-size="10.00">datapath_not_equal_zero</text>
			<polygon fill="AliceBlue" stroke="none" points="-22.5,-60 -22.5,-75 25.5,-75 25.5,-60 -22.5,-60" />
			<polygon fill="none" stroke="black" points="-22.5,-60 -22.5,-75 25.5,-75 25.5,-60 -22.5,-60" />
			<text text-anchor="start" x="-19.5" y="-65.6" font-family="Arial" font-size="8.00">Cycle:</text>
			<polygon fill="none" stroke="black" points="25.5,-60 25.5,-75 104.5,-75 104.5,-60 25.5,-60" />
			<text text-anchor="start" x="28.5" y="-65.6" font-family="Arial" font-size="8.00">9</text>
			<polygon fill="AliceBlue" stroke="none" points="-22.5,-45 -22.5,-60 25.5,-60 25.5,-45 -22.5,-45" />
			<polygon fill="none" stroke="black" points="-22.5,-45 -22.5,-60 25.5,-60 25.5,-45 -22.5,-45" />
			<text text-anchor="start" x="-19.5" y="-50.6" font-family="Arial" font-size="8.00">ACU</text>
			<polygon fill="none" stroke="black" points="25.5,-45 25.5,-60 64.5,-60 64.5,-45 25.5,-45" />
			<text text-anchor="start" x="28.5" y="-50.6" font-family="Arial" font-size="8.00">Beg</text>
			<polygon fill="none" stroke="black" points="64.5,-45 64.5,-60 104.5,-60 104.5,-45 64.5,-45" />
			<text text-anchor="start" x="67.5" y="-50.6" font-family="Arial" font-size="8.00">End</text>
			<polygon fill="AliceBlue" stroke="none" points="-22.5,-30 -22.5,-45 25.5,-45 25.5,-30 -22.5,-30" />
			<polygon fill="none" stroke="black" points="-22.5,-30 -22.5,-45 25.5,-45 25.5,-30 -22.5,-30" />
			<text text-anchor="start" x="-19.5" y="-35.6" font-family="Arial" font-size="8.00">A.reg</text>
			<polygon fill="none" stroke="black" points="25.5,-30 25.5,-45 64.5,-45 64.5,-30 25.5,-30" />
			<text text-anchor="start" x="28.5" y="-35.6" font-family="Arial" font-size="8.00">0x00</text>
			<polygon fill="none" stroke="black" points="64.5,-30 64.5,-45 104.5,-45 104.5,-30 64.5,-30" />
			<text text-anchor="start" x="67.5" y="-35.6" font-family="Arial" font-size="8.00">0x00</text>
			<polygon fill="AliceBlue" stroke="none" points="-22.5,-15 -22.5,-30 25.5,-30 25.5,-15 -22.5,-15" />
			<polygon fill="none" stroke="black" points="-22.5,-15 -22.5,-30 25.5,-30 25.5,-15 -22.5,-15" />
			<text text-anchor="start" x="-19.5" y="-20.6" font-family="Arial" font-size="8.00">B.reg</text>
			<polygon fill="none" stroke="black" points="25.5,-15 25.5,-30 64.5,-30 64.5,-15 25.5,-15" />
			<text text-anchor="start" x="28.5" y="-20.6" font-family="Arial" font-size="8.00">0x00</text>
			<polygon fill="none" stroke="black" points="64.5,-15 64.5,-30 104.5,-30 104.5,-15 64.5,-15" />
			<text text-anchor="start" x="67.5" y="-20.6" font-family="Arial" font-size="8.00">0x00</text>
		</g>
		<!-- init_8&#45;&gt;datapath_not_equal_zero_9 -->
		<g id="edge3" class="edge">
			<title>init_8-&gt;datapath_not_equal_zero_9</title>
			<path fill="none" stroke="ForestGreen" d="M-68.4551,-126.637C-56.759,-118.839 -44.1764,-110.451 -31.8632,-102.242" />
			<polygon fill="ForestGreen" stroke="ForestGreen" points="-29.7749,-105.056 -23.3959,-96.5972 -33.6579,-99.2321 -29.7749,-105.056" />
			<text text-anchor="middle" x="-59.6592" y="-108.039" font-family="Arial" font-size="8.00">false</text>
		</g>
		<!-- init_18 -->
		<g id="node4" class="node">
			<title>init_18</title>
			<polygon fill="LemonChiffon" stroke="none" points="-166.5,249 -166.5,232 -76.5,232 -76.5,249 -166.5,249" />
			<polygon fill="none" stroke="black" points="-166.5,249 -166.5,232 -76.5,232 -76.5,249 -166.5,249" />
			<text text-anchor="start" x="-129.5" y="242" font-family="Arial" font-weight="bold" font-size="10.00">init</text>
			<polygon fill="AliceBlue" stroke="none" points="-166.5,264 -166.5,249 -136.5,249 -136.5,264 -166.5,264" />
			<polygon fill="none" stroke="black" points="-166.5,264 -166.5,249 -136.5,249 -136.5,264 -166.5,264" />
			<text text-anchor="start" x="-163.5" y="258.4" font-family="Arial" font-size="8.00">Cycle:</text>
			<polygon fill="none" stroke="black" points="-136.5,264 -136.5,249 -76.5,249 -76.5,264 -136.5,264" />
			<text text-anchor="start" x="-133.5" y="258.4" font-family="Arial" font-size="8.00">18</text>
			<polygon fill="AliceBlue" stroke="none" points="-166.5,279 -166.5,264 -136.5,264 -136.5,279 -166.5,279" />
			<polygon fill="none" stroke="black" points="-166.5,279 -166.5,264 -136.5,264 -136.5,279 -166.5,279" />
			<text text-anchor="start" x="-163.5" y="273.4" font-family="Arial" font-size="8.00">ACU</text>
			<polygon fill="none" stroke="black" points="-136.5,279 -136.5,264 -106.5,264 -106.5,279 -136.5,279" />
			<text text-anchor="start" x="-133.5" y="273.4" font-family="Arial" font-size="8.00">Beg</text>
			<polygon fill="none" stroke="black" points="-106.5,279 -106.5,264 -76.5,264 -76.5,279 -106.5,279" />
			<text text-anchor="start" x="-103.5" y="273.4" font-family="Arial" font-size="8.00">End</text>
			<polygon fill="AliceBlue" stroke="none" points="-166.5,294 -166.5,279 -136.5,279 -136.5,294 -166.5,294" />
			<polygon fill="none" stroke="black" points="-166.5,294 -166.5,279 -136.5,279 -136.5,294 -166.5,294" />
			<text text-anchor="start" x="-163.5" y="288.4" font-family="Arial" font-size="8.00">A.reg</text>
			<polygon fill="none" stroke="black" points="-136.5,294 -136.5,279 -106.5,279 -106.5,294 -136.5,294" />
			<text text-anchor="start" x="-133.5" y="288.4" font-family="Arial" font-size="8.00">0x00</text>
			<polygon fill="none" stroke="black" points="-106.5,294 -106.5,279 -76.5,279 -76.5,294 -106.5,294" />
			<text text-anchor="start" x="-103.5" y="288.4" font-family="Arial" font-size="8.00">0x00</text>
			<polygon fill="AliceBlue" stroke="none" points="-166.5,309 -166.5,294 -136.5,294 -136.5,309 -166.5,309" />
			<polygon fill="none" stroke="black" points="-166.5,309 -166.5,294 -136.5,294 -136.5,309 -166.5,309" />
			<text text-anchor="start" x="-163.5" y="303.4" font-family="Arial" font-size="8.00">B.reg</text>
			<polygon fill="none" stroke="black" points="-136.5,309 -136.5,294 -106.5,294 -106.5,309 -136.5,309" />
			<text text-anchor="start" x="-133.5" y="303.4" font-family="Arial" font-size="8.00">0x00</text>
			<polygon fill="none" stroke="black" points="-106.5,309 -106.5,294 -76.5,294 -76.5,309 -106.5,309" />
			<text text-anchor="start" x="-103.5" y="303.4" font-family="Arial" font-size="8.00">0x00</text>
		</g>
		<!-- init_13&#45;&gt;init_18 -->
		<g id="edge10" class="edge">
			<title>init_13-&gt;init_18</title>
			<path fill="none" stroke="Gray" stroke-dasharray="5,2" d="M-121.5,96.6746C-121.5,134.542 -121.5,189.573 -121.5,227.414" />
		</g>
		<!-- datapath_equals_zero_14 -->
		<g id="node6" class="node">
			<title>datapath_equals_zero_14</title>
			<polygon fill="LemonChiffon" stroke="none" points="146.5,141 146.5,124 258.5,124 258.5,141 146.5,141" />
			<polygon fill="none" stroke="black" points="146.5,141 146.5,124 258.5,124 258.5,141 146.5,141" />
			<text text-anchor="start" x="149.5" y="134" font-family="Arial" font-weight="bold" font-size="10.00">datapath_equals_zero</text>
			<polygon fill="AliceBlue" stroke="none" points="146.5,156 146.5,141 187.5,141 187.5,156 146.5,156" />
			<polygon fill="none" stroke="black" points="146.5,156 146.5,141 187.5,141 187.5,156 146.5,156" />
			<text text-anchor="start" x="149.5" y="150.4" font-family="Arial" font-size="8.00">Cycle:</text>
			<polygon fill="none" stroke="black" points="187.5,156 187.5,141 258.5,141 258.5,156 187.5,156" />
			<text text-anchor="start" x="190.5" y="150.4" font-family="Arial" font-size="8.00">14</text>
			<polygon fill="AliceBlue" stroke="none" points="146.5,171 146.5,156 187.5,156 187.5,171 146.5,171" />
			<polygon fill="none" stroke="black" points="146.5,171 146.5,156 187.5,156 187.5,171 146.5,171" />
			<text text-anchor="start" x="149.5" y="165.4" font-family="Arial" font-size="8.00">ACU</text>
			<polygon fill="none" stroke="black" points="187.5,171 187.5,156 222.5,156 222.5,171 187.5,171" />
			<text text-anchor="start" x="190.5" y="165.4" font-family="Arial" font-size="8.00">Beg</text>
			<polygon fill="none" stroke="black" points="222.5,171 222.5,156 258.5,156 258.5,171 222.5,171" />
			<text text-anchor="start" x="225.5" y="165.4" font-family="Arial" font-size="8.00">End</text>
			<polygon fill="AliceBlue" stroke="none" points="146.5,186 146.5,171 187.5,171 187.5,186 146.5,186" />
			<polygon fill="none" stroke="black" points="146.5,186 146.5,171 187.5,171 187.5,186 146.5,186" />
			<text text-anchor="start" x="149.5" y="180.4" font-family="Arial" font-size="8.00">A.reg</text>
			<polygon fill="none" stroke="black" points="187.5,186 187.5,171 222.5,171 222.5,186 187.5,186" />
			<text text-anchor="start" x="190.5" y="180.4" font-family="Arial" font-size="8.00">0x00</text>
			<polygon fill="none" stroke="black" points="222.5,186 222.5,171 258.5,171 258.5,186 222.5,186" />
			<text text-anchor="start" x="225.5" y="180.4" font-family="Arial" font-size="8.00">0x00</text>
			<polygon fill="AliceBlue" stroke="none" points="146.5,201 146.5,186 187.5,186 187.5,201 146.5,201" />
			<polygon fill="none" stroke="black" points="146.5,201 146.5,186 187.5,186 187.5,201 146.5,201" />
			<text text-anchor="start" x="149.5" y="195.4" font-family="Arial" font-size="8.00">B.reg</text>
			<polygon fill="none" stroke="black" points="187.5,201 187.5,186 222.5,186 222.5,201 187.5,201" />
			<text text-anchor="start" x="190.5" y="195.4" font-family="Arial" font-size="8.00">0x00</text>
			<polygon fill="none" stroke="black" points="222.5,201 222.5,186 258.5,186 258.5,201 222.5,201" />
			<text text-anchor="start" x="225.5" y="195.4" font-family="Arial" font-size="8.00">0x00</text>
		</g>
		<!-- init_13&#45;&gt;datapath_equals_zero_14 -->
		<g id="edge5" class="edge">
			<title>init_13-&gt;datapath_equals_zero_14</title>
			<path fill="none" stroke="ForestGreen" d="M-68.3608,71.7131C-14.7069,89.5977 68.5985,117.366 128.658,137.386" />
			<polygon fill="ForestGreen" stroke="ForestGreen" points="130.083,134.172 138.463,140.654 127.87,140.813 130.083,134.172" />
			<text text-anchor="middle" x="19.6487" y="101.95" font-family="Arial" font-size="8.00">DpEQ</text>
		</g>
		<!-- datapath_not_equal_zero_19 -->
		<g id="node8" class="node">
			<title>datapath_not_equal_zero_19</title>
			<polygon fill="LemonChiffon" stroke="none" points="-22.5,357 -22.5,340 104.5,340 104.5,357 -22.5,357" />
			<polygon fill="none" stroke="black" points="-22.5,357 -22.5,340 104.5,340 104.5,357 -22.5,357" />
			<text text-anchor="start" x="-19.5" y="350" font-family="Arial" font-weight="bold" font-size="10.00">datapath_not_equal_zero</text>
			<polygon fill="AliceBlue" stroke="none" points="-22.5,372 -22.5,357 25.5,357 25.5,372 -22.5,372" />
			<polygon fill="none" stroke="black" points="-22.5,372 -22.5,357 25.5,357 25.5,372 -22.5,372" />
			<text text-anchor="start" x="-19.5" y="366.4" font-family="Arial" font-size="8.00">Cycle:</text>
			<polygon fill="none" stroke="black" points="25.5,372 25.5,357 104.5,357 104.5,372 25.5,372" />
			<text text-anchor="start" x="28.5" y="366.4" font-family="Arial" font-size="8.00">19</text>
			<polygon fill="AliceBlue" stroke="none" points="-22.5,387 -22.5,372 25.5,372 25.5,387 -22.5,387" />
			<polygon fill="none" stroke="black" points="-22.5,387 -22.5,372 25.5,372 25.5,387 -22.5,387" />
			<text text-anchor="start" x="-19.5" y="381.4" font-family="Arial" font-size="8.00">ACU</text>
			<polygon fill="none" stroke="black" points="25.5,387 25.5,372 64.5,372 64.5,387 25.5,387" />
			<text text-anchor="start" x="28.5" y="381.4" font-family="Arial" font-size="8.00">Beg</text>
			<polygon fill="none" stroke="black" points="64.5,387 64.5,372 104.5,372 104.5,387 64.5,387" />
			<text text-anchor="start" x="67.5" y="381.4" font-family="Arial" font-size="8.00">End</text>
			<polygon fill="AliceBlue" stroke="none" points="-22.5,402 -22.5,387 25.5,387 25.5,402 -22.5,402" />
			<polygon fill="none" stroke="black" points="-22.5,402 -22.5,387 25.5,387 25.5,402 -22.5,402" />
			<text text-anchor="start" x="-19.5" y="396.4" font-family="Arial" font-size="8.00">A.reg</text>
			<polygon fill="none" stroke="black" points="25.5,402 25.5,387 64.5,387 64.5,402 25.5,402" />
			<text text-anchor="start" x="28.5" y="396.4" font-family="Arial" font-size="8.00">0x00</text>
			<polygon fill="none" stroke="black" points="64.5,402 64.5,387 104.5,387 104.5,402 64.5,402" />
			<text text-anchor="start" x="67.5" y="396.4" font-family="Arial" font-size="8.00">0x00</text>
			<polygon fill="AliceBlue" stroke="none" points="-22.5,417 -22.5,402 25.5,402 25.5,417 -22.5,417" />
			<polygon fill="none" stroke="black" points="-22.5,417 -22.5,402 25.5,402 25.5,417 -22.5,417" />
			<text text-anchor="start" x="-19.5" y="411.4" font-family="Arial" font-size="8.00">B.reg</text>
			<polygon fill="none" stroke="black" points="25.5,417 25.5,402 64.5,402 64.5,417 25.5,417" />
			<text text-anchor="start" x="28.5" y="411.4" font-family="Arial" font-size="8.00">0x00</text>
			<polygon fill="none" stroke="black" points="64.5,417 64.5,402 104.5,402 104.5,417 64.5,417" />
			<text text-anchor="start" x="67.5" y="411.4" font-family="Arial" font-size="8.00">0x00</text>
		</g>
		<!-- init_18&#45;&gt;datapath_not_equal_zero_19 -->
		<g id="edge9" class="edge">
			<title>init_18-&gt;datapath_not_equal_zero_19</title>
			<path fill="none" stroke="ForestGreen" d="M-68.4551,305.363C-56.759,313.161 -44.1764,321.549 -31.8632,329.758" />
			<polygon fill="ForestGreen" stroke="ForestGreen" points="-29.7749,326.944 -23.3959,335.403 -33.6579,332.768 -29.7749,326.944" />
			<text text-anchor="middle" x="-59.6592" y="323.961" font-family="Arial" font-size="8.00">false</text>
		</g>
		<!-- datapath_equals_zero_4&#45;&gt;init_8 -->
		<g id="edge2" class="edge">
			<title>datapath_equals_zero_4-&gt;init_8</title>
			<path fill="none" stroke="ForestGreen" d="M138.488,-248.663C81.306,-229.602 -1.96627,-201.845 -58.7578,-182.914" />
			<polygon fill="ForestGreen" stroke="ForestGreen" points="-57.7445,-179.563 -68.3381,-179.721 -59.9581,-186.203 -57.7445,-179.563" />
			<text text-anchor="middle" x="30.3651" y="-218.388" font-family="Arial" font-size="8.00">false</text>
		</g>
		<!-- datapath_equals_zero_4&#45;&gt;datapath_equals_zero_14 -->
		<g id="edge8" class="edge">
			<title>datapath_equals_zero_4-&gt;datapath_equals_zero_14</title>
			<path fill="none" stroke="Gray" stroke-dasharray="5,2" d="M202.5,-227.396C202.5,-144.698 202.5,36.6984 202.5,119.396" />
		</g>
		<!-- datapath_equals_zero_14&#45;&gt;init_18 -->
		<g id="edge7" class="edge">
			<title>datapath_equals_zero_14-&gt;init_18</title>
			<path fill="none" stroke="ForestGreen" d="M138.488,183.337C81.306,202.398 -1.96627,230.155 -58.7578,249.086" />
			<polygon fill="ForestGreen" stroke="ForestGreen" points="-57.7445,252.437 -68.3381,252.279 -59.9581,245.797 -57.7445,252.437" />
			<text text-anchor="middle" x="30.3651" y="213.612" font-family="Arial" font-size="8.00">false</text>
		</g>
		<!-- datapath_not_equal_zero_9&#45;&gt;init_13 -->
		<g id="edge4" class="edge">
			<title>datapath_not_equal_zero_9-&gt;init_13</title>
			<path fill="none" stroke="ForestGreen" d="M-23.5267,-11.3155C-35.4828,-3.3448 -47.9555,4.97033 -59.8384,12.8923" />
			<polygon fill="ForestGreen" stroke="ForestGreen" points="-58.109,15.9458 -68.371,18.5807 -61.992,10.1215 -58.109,15.9458" />
			<text text-anchor="middle" x="-51.1826" y="-1.81162" font-family="Arial" font-size="8.00">false</text>
		</g>
	</g>
</svg>