<svg width="100%" height="100%" viewBox="0.00 0.00 438.00 849.00" xmlns="http://www.w3.org/2000/svg" xmlns:xlink="http://www.w3.org/1999/xlink">
	<g id="graph0" class="graph" transform="scale(1 1) rotate(0) translate(178.5 424.5)">
		<title>dfb_call</title>
		<polygon fill="white" stroke="none" points="-178.5,424.5 -178.5,-424.5 259.5,-424.5 259.5,424.5 -178.5,424.5" />
		<g id="clust2" class="cluster">
			<title>cluster_sign_did_not_change</title>
			<polygon fill="WhiteSmoke" stroke="SteelBlue" points="-21,420.5 -21,-312.5 102,-312.5 102,420.5 -21,420.5" />
			<text text-anchor="middle" x="40.5" y="-302.1" font-family="Arial" font-size="8.00">sign_did_not_change</text>
		</g>
		<g id="clust1" class="cluster">
			<title>cluster_init</title>
			<polygon fill="WhiteSmoke" stroke="SteelBlue" points="-174.5,312.5 -174.5,-420.5 -68.5,-420.5 -68.5,312.5 -174.5,312.5" />
			<text text-anchor="middle" x="-121.5" y="-410.1" font-family="Arial" font-size="8.00">init</text>
		</g>
		<g id="clust3" class="cluster">
			<title>cluster_sign_changed</title>
			<polygon fill="WhiteSmoke" stroke="SteelBlue" points="149.5,204.5 149.5,-96.5 255.5,-96.5 255.5,204.5 149.5,204.5" />
			<text text-anchor="middle" x="202.5" y="-86.1" font-family="Arial" font-size="8.00">sign_changed</text>
		</g>
		<!-- init_3 -->
		<g id="node1" class="node">
			<title>init_3</title>
			<polygon fill="LemonChiffon" stroke="none" points="-166.5,-399 -166.5,-416 -76.5,-416 -76.5,-399 -166.5,-399" />
			<polygon fill="none" stroke="black" points="-166.5,-399 -166.5,-416 -76.5,-416 -76.5,-399 -166.5,-399" />
			<text text-anchor="start" x="-129.5" y="-406" font-family="Arial" font-weight="bold" font-size="10.00">init</text>
			<polygon fill="AliceBlue" stroke="none" points="-166.5,-384 -166.5,-399 -136.5,-399 -136.5,-384 -166.5,-384" />
			<polygon fill="none" stroke="black" points="-166.5,-384 -166.5,-399 -136.5,-399 -136.5,-384 -166.5,-384" />
			<text text-anchor="start" x="-163.5" y="-389.6" font-family="Arial" font-size="8.00">Cycle:</text>
			<polygon fill="none" stroke="black" points="-136.5,-384 -136.5,-399 -76.5,-399 -76.5,-384 -136.5,-384" />
			<text text-anchor="start" x="-133.5" y="-389.6" font-family="Arial" font-size="8.00">3</text>
			<polygon fill="AliceBlue" stroke="none" points="-166.5,-369 -166.5,-384 -136.5,-384 -136.5,-369 -166.5,-369" />
			<polygon fill="none" stroke="black" points="-166.5,-369 -166.5,-384 -136.5,-384 -136.5,-369 -166.5,-369" />
			<text text-anchor="start" x="-163.5" y="-374.6" font-family="Arial" font-size="8.00">ACU</text>
			<polygon fill="none" stroke="black" points="-136.5,-369 -136.5,-384 -106.5,-384 -106.5,-369 -136.5,-369" />
			<text text-anchor="start" x="-133.5" y="-374.6" font-family="Arial" font-size="8.00">Beg</text>
			<polygon fill="none" stroke="black" points="-106.5,-369 -106.5,-384 -76.5,-384 -76.5,-369 -106.5,-369" />
			<text text-anchor="start" x="-103.5" y="-374.6" font-family="Arial" font-size="8.00">End</text>
			<polygon fill="AliceBlue" stroke="none" points="-166.5,-354 -166.5,-369 -136.5,-369 -136.5,-354 -166.5,-354" />
			<polygon fill="none" stroke="black" points="-166.5,-354 -166.5,-369 -136.5,-369 -136.5,-354 -166.5,-354" />
			<text text-anchor="start" x="-163.5" y="-359.6" font-family="Arial" font-size="8.00">A.reg</text>
			<polygon fill="none" stroke="black" points="-136.5,-354 -136.5,-369 -106.5,-369 -106.5,-354 -136.5,-354" />
			<polygon fill="none" stroke="black" points="-106.5,-354 -106.5,-369 -76.5,-369 -76.5,-354 -106.5,-354" />
			<text text-anchor="start" x="-103.5" y="-359.6" font-family="Arial" font-size="8.00">0x00</text>
			<polygon fill="AliceBlue" stroke="none" points="-166.5,-339 -166.5,-354 -136.5,-354 -136.5,-339 -166.5,-339" />
			<polygon fill="none" stroke="black" points="-166.5,-339 -166.5,-354 -136.5,-354 -136.5,-339 -166.5,-339" />
			<text text-anchor="start" x="-163.5" y="-344.6" font-family="Arial" font-size="8.00">B.reg</text>
			<polygon fill="none" stroke="black" points="-136.5,-339 -136.5,-354 -106.5,-354 -106.5,-339 -136.5,-339" />
			<polygon fill="none" stroke="black" points="-106.5,-339 -106.5,-354 -76.5,-354 -76.5,-339 -106.5,-339" />
			<text text-anchor="start" x="-103.5" y="-344.6" font-family="Arial" font-size="8.00">0x00</text>
		</g>
		<!-- sign_did_not_change_4 -->
		<g id="node5" class="node">
			<title>sign_did_not_change_4</title>
			<polygon fill="LemonChiffon" stroke="none" points="-12.5,-291 -12.5,-308 94.5,-308 94.5,-291 -12.5,-291" />
			<polygon fill="none" stroke="black" points="-12.5,-291 -12.5,-308 94.5,-308 94.5,-291 -12.5,-291" />
			<text text-anchor="start" x="-9.5" y="-298" font-family="Arial" font-weight="bold" font-size="10.00">sign_did_not_change</text>
			<polygon fill="AliceBlue" stroke="none" points="-12.5,-276 -12.5,-291 25.5,-291 25.5,-276 -12.5,-276" />
			<polygon fill="none" stroke="black" points="-12.5,-276 -12.5,-291 25.5,-291 25.5,-276 -12.5,-276" />
			<text text-anchor="start" x="-9.5" y="-281.6" font-family="Arial" font-size="8.00">Cycle:</text>
			<polygon fill="none" stroke="black" points="25.5,-276 25.5,-291 94.5,-291 94.5,-276 25.5,-276" />
			<text text-anchor="start" x="28.5" y="-281.6" font-family="Arial" font-size="8.00">4</text>
			<polygon fill="AliceBlue" stroke="none" points="-12.5,-261 -12.5,-276 25.5,-276 25.5,-261 -12.5,-261" />
			<polygon fill="none" stroke="black" points="-12.5,-261 -12.5,-276 25.5,-276 25.5,-261 -12.5,-261" />
			<text text-anchor="start" x="-9.5" y="-266.6" font-family="Arial" font-size="8.00">ACU</text>
			<polygon fill="none" stroke="black" points="25.5,-261 25.5,-276 59.5,-276 59.5,-261 25.5,-261" />
			<text text-anchor="start" x="28.5" y="-266.6" font-family="Arial" font-size="8.00">Beg</text>
			<polygon fill="none" stroke="black" points="59.5,-261 59.5,-276 94.5,-276 94.5,-261 59.5,-261" />
			<text text-anchor="start" x="62.5" y="-266.6" font-family="Arial" font-size="8.00">End</text>
			<polygon fill="AliceBlue" stroke="none" points="-12.5,-246 -12.5,-261 25.5,-261 25.5,-246 -12.5,-246" />
			<polygon fill="none" stroke="black" points="-12.5,-246 -12.5,-261 25.5,-261 25.5,-246 -12.5,-246" />
			<text text-anchor="start" x="-9.5" y="-251.6" font-family="Arial" font-size="8.00">A.reg</text>
			<polygon fill="none" stroke="black" points="25.5,-246 25.5,-261 59.5,-261 59.5,-246 25.5,-246" />
			<text text-anchor="start" x="28.5" y="-251.6" font-family="Arial" font-size="8.00">0x00</text>
			<polygon fill="none" stroke="black" points="59.5,-246 59.5,-261 94.5,-261 94.5,-246 59.5,-246" />
			<text text-anchor="start" x="62.5" y="-251.6" font-family="Arial" font-size="8.00">0x00</text>
			<polygon fill="AliceBlue" stroke="none" points="-12.5,-231 -12.5,-246 25.5,-246 25.5,-231 -12.5,-231" />
			<polygon fill="none" stroke="black" points="-12.5,-231 -12.5,-246 25.5,-246 25.5,-231 -12.5,-231" />
			<text text-anchor="start" x="-9.5" y="-236.6" font-family="Arial" font-size="8.00">B.reg</text>
			<polygon fill="none" stroke="black" points="25.5,-231 25.5,-246 59.5,-246 59.5,-231 25.5,-231" />
			<text text-anchor="start" x="28.5" y="-236.6" font-family="Arial" font-size="8.00">0x00</text>
			<polygon fill="none" stroke="black" points="59.5,-231 59.5,-246 94.5,-246 94.5,-231 59.5,-231" />
			<text text-anchor="start" x="62.5" y="-236.6" font-family="Arial" font-size="8.00">0x00</text>
		</g>
		<!-- init_3&#45;&gt;sign_did_not_change_4 -->
		<g id="edge1" class="edge">
			<title>init_3-&gt;sign_did_not_change_4</title>
			<path fill="none" stroke="ForestGreen" d="M-68.4551,-342.637C-56.0409,-334.361 -42.6282,-325.419 -29.5988,-316.733" />
			<polygon fill="ForestGreen" stroke="ForestGreen" points="-27.4853,-319.53 -21.1062,-311.071 -31.3682,-313.706 -27.4853,-319.53" />
			<text text-anchor="middle" x="-58.5269" y="-332.285" font-family="Arial" font-size="8.00">false</text>
		</g>
		<!-- init_8 -->
		<g id="node2" class="node">
			<title>init_8</title>
			<polygon fill="LemonChiffon" stroke="none" points="-166.5,-183 -166.5,-200 -76.5,-200 -76.5,-183 -166.5,-183" />
			<polygon fill="none" stroke="black" points="-166.5,-183 -166.5,-200 -76.5,-200 -76.5,-183 -166.5,-183" />
			<text text-anchor="start" x="-129.5" y="-190" font-family="Arial" font-weight="bold" font-size="10.00">init</text>
			<polygon fill="AliceBlue" stroke="none" points="-166.5,-168 -166.5,-183 -136.5,-183 -136.5,-168 -166.5,-168" />
			<polygon fill="none" stroke="black" points="-166.5,-168 -166.5,-183 -136.5,-183 -136.5,-168 -166.5,-168" />
			<text text-anchor="start" x="-163.5" y="-173.6" font-family="Arial" font-size="8.00">Cycle:</text>
			<polygon fill="none" stroke="black" points="-136.5,-168 -136.5,-183 -76.5,-183 -76.5,-168 -136.5,-168" />
			<text text-anchor="start" x="-133.5" y="-173.6" font-family="Arial" font-size="8.00">8</text>
			<polygon fill="AliceBlue" stroke="none" points="-166.5,-153 -166.5,-168 -136.5,-168 -136.5,-153 -166.5,-153" />
			<polygon fill="none" stroke="black" points="-166.5,-153 -166.5,-168 -136.5,-168 -136.5,-153 -166.5,-153" />
			<text text-anchor="start" x="-163.5" y="-158.6" font-family="Arial" font-size="8.00">ACU</text>
			<polygon fill="none" stroke="black" points="-136.5,-153 -136.5,-168 -106.5,-168 -106.5,-153 -136.5,-153" />
			<text text-anchor="start" x="-133.5" y="-158.6" font-family="Arial" font-size="8.00">Beg</text>
			<polygon fill="none" stroke="black" points="-106.5,-153 -106.5,-168 -76.5,-168 -76.5,-153 -106.5,-153" />
			<text text-anchor="start" x="-103.5" y="-158.6" font-family="Arial" font-size="8.00">End</text>
			<polygon fill="AliceBlue" stroke="none" points="-166.5,-138 -166.5,-153 -136.5,-153 -136.5,-138 -166.5,-138" />
			<polygon fill="none" stroke="black" points="-166.5,-138 -166.5,-153 -136.5,-153 -136.5,-138 -166.5,-138" />
			<text text-anchor="start" x="-163.5" y="-143.6" font-family="Arial" font-size="8.00">A.reg</text>
			<polygon fill="none" stroke="black" points="-136.5,-138 -136.5,-153 -106.5,-153 -106.5,-138 -136.5,-138" />
			<text text-anchor="start" x="-133.5" y="-143.6" font-family="Arial" font-size="8.00">0x00</text>
			<polygon fill="none" stroke="black" points="-106.5,-138 -106.5,-153 -76.5,-153 -76.5,-138 -106.5,-138" />
			<text text-anchor="start" x="-103.5" y="-143.6" font-family="Arial" font-size="8.00">0x00</text>
			<polygon fill="AliceBlue" stroke="none" points="-166.5,-123 -166.5,-138 -136.5,-138 -136.5,-123 -166.5,-123" />
			<polygon fill="none" stroke="black" points="-166.5,-123 -166.5,-138 -136.5,-138 -136.5,-123 -166.5,-123" />
			<text text-anchor="start" x="-163.5" y="-128.6" font-family="Arial" font-size="8.00">B.reg</text>
			<polygon fill="none" stroke="black" points="-136.5,-123 -136.5,-138 -106.5,-138 -106.5,-123 -136.5,-123" />
			<text text-anchor="start" x="-133.5" y="-128.6" font-family="Arial" font-size="8.00">0x00</text>
			<polygon fill="none" stroke="black" points="-106.5,-123 -106.5,-138 -76.5,-138 -76.5,-123 -106.5,-123" />
			<text text-anchor="start" x="-103.5" y="-128.6" font-family="Arial" font-size="8.00">0x00</text>
		</g>
		<!-- init_13 -->
		<g id="node3" class="node">
			<title>init_13</title>
			<polygon fill="LemonChiffon" stroke="none" points="-166.5,33 -166.5,16 -76.5,16 -76.5,33 -166.5,33" />
			<polygon fill="none" stroke="black" points="-166.5,33 -166.5,16 -76.5,16 -76.5,33 -166.5,33" />
			<text text-anchor="start" x="-129.5" y="26" font-family="Arial" font-weight="bold" font-size="10.00">init</text>
			<polygon fill="AliceBlue" stroke="none" points="-166.5,48 -166.5,33 -136.5,33 -136.5,48 -166.5,48" />
			<polygon fill="none" stroke="black" points="-166.5,48 -166.5,33 -136.5,33 -136.5,48 -166.5,48" />
			<text text-anchor="start" x="-163.5" y="42.4" font-family="Arial" font-size="8.00">Cycle:</text>
			<polygon fill="none" stroke="black" points="-136.5,48 -136.5,33 -76.5,33 -76.5,48 -136.5,48" />
			<text text-anchor="start" x="-133.5" y="42.4" font-family="Arial" font-size="8.00">13</text>
			<polygon fill="AliceBlue" stroke="none" points="-166.5,63 -166.5,48 -136.5,48 -136.5,63 -166.5,63" />
			<polygon fill="none" stroke="black" points="-166.5,63 -166.5,48 -136.5,48 -136.5,63 -166.5,63" />
			<text text-anchor="start" x="-163.5" y="57.4" font-family="Arial" font-size="8.00">ACU</text>
			<polygon fill="none" stroke="black" points="-136.5,63 -136.5,48 -106.5,48 -106.5,63 -136.5,63" />
			<text text-anchor="start" x="-133.5" y="57.4" font-family="Arial" font-size="8.00">Beg</text>
			<polygon fill="none" stroke="black" points="-106.5,63 -106.5,48 -76.5,48 -76.5,63 -106.5,63" />
			<text text-anchor="start" x="-103.5" y="57.4" font-family="Arial" font-size="8.00">End</text>
			<polygon fill="AliceBlue" stroke="none" points="-166.5,78 -166.5,63 -136.5,63 -136.5,78 -166.5,78" />
			<polygon fill="none" stroke="black" points="-166.5,78 -166.5,63 -136.5,63 -136.5,78 -166.5,78" />
			<text text-anchor="start" x="-163.5" y="72.4" font-family="Arial" font-size="8.00">A.reg</text>
			<polygon fill="none" stroke="black" points="-136.5,78 -136.5,63 -106.5,63 -106.5,78 -136.5,78" />
			<text text-anchor="start" x="-133.5" y="72.4" font-family="Arial" font-size="8.00">0x00</text>
			<polygon fill="none" stroke="black" points="-106.5,78 -106.5,63 -76.5,63 -76.5,78 -106.5,78" />
			<text text-anchor="start" x="-103.5" y="72.4" font-family="Arial" font-size="8.00">0x00</text>
			<polygon fill="AliceBlue" stroke="none" points="-166.5,93 -166.5,78 -136.5,78 -136.5,93 -166.5,93" />
			<polygon fill="none" stroke="black" points="-166.5,93 -166.5,78 -136.5,78 -136.5,93 -166.5,93" />
			<text text-anchor="start" x="-163.5" y="87.4" font-family="Arial" font-size="8.00">B.reg</text>
			<polygon fill="none" stroke="black" points="-136.5,93 -136.5,78 -106.5,78 -106.5,93 -136.5,93" />
			<text text-anchor="start" x="-133.5" y="87.4" font-family="Arial" font-size="8.00">0x00</text>
			<polygon fill="none" stroke="black" points="-106.5,93 -106.5,78 -76.5,78 -76.5,93 -106.5,93" />
			<text text-anchor="start" x="-103.5" y="87.4" font-family="Arial" font-size="8.00">0x00</text>
		</g>
		<!-- init_8&#45;&gt;init_13 -->
		<g id="edge6" class="edge">
			<title>init_8-&gt;init_13</title>
			<path fill="none" stroke="Gray" stroke-dasharray="5,2" d="M-121.5,-119.325C-121.5,-81.4576 -121.5,-26.4269 -121.5,11.414" />
		</g>
		<!-- sign_changed_9 -->
		<g id="node7" class="node">
			<title>sign_changed_9</title>
			<polygon fill="LemonChiffon" stroke="none" points="157.5,-75 157.5,-92 247.5,-92 247.5,-75 157.5,-75" />
			<polygon fill="none" stroke="black" points="157.5,-75 157.5,-92 247.5,-92 247.5,-75 157.5,-75" />
			<text text-anchor="start" x="169" y="-82" font-family="Arial" font-weight="bold" font-size="10.00">sign_changed</text>
			<polygon fill="AliceBlue" stroke="none" points="157.5,-60 157.5,-75 187.5,-75 187.5,-60 157.5,-60" />
			<polygon fill="none" stroke="black" points="157.5,-60 157.5,-75 187.5,-75 187.5,-60 157.5,-60" />
			<text text-anchor="start" x="160.5" y="-65.6" font-family="Arial" font-size="8.00">Cycle:</text>
			<polygon fill="none" stroke="black" points="187.5,-60 187.5,-75 247.5,-75 247.5,-60 187.5,-60" />
			<text text-anchor="start" x="190.5" y="-65.6" font-family="Arial" font-size="8.00">9</text>
			<polygon fill="AliceBlue" stroke="none" points="157.5,-45 157.5,-60 187.5,-60 187.5,-45 157.5,-45" />
			<polygon fill="none" stroke="black" points="157.5,-45 157.5,-60 187.5,-60 187.5,-45 157.5,-45" />
			<text text-anchor="start" x="160.5" y="-50.6" font-family="Arial" font-size="8.00">ACU</text>
			<polygon fill="none" stroke="black" points="187.5,-45 187.5,-60 217.5,-60 217.5,-45 187.5,-45" />
			<text text-anchor="start" x="190.5" y="-50.6" font-family="Arial" font-size="8.00">Beg</text>
			<polygon fill="none" stroke="black" points="217.5,-45 217.5,-60 247.5,-60 247.5,-45 217.5,-45" />
			<text text-anchor="start" x="220.5" y="-50.6" font-family="Arial" font-size="8.00">End</text>
			<polygon fill="AliceBlue" stroke="none" points="157.5,-30 157.5,-45 187.5,-45 187.5,-30 157.5,-30" />
			<polygon fill="none" stroke="black" points="157.5,-30 157.5,-45 187.5,-45 187.5,-30 157.5,-30" />
			<text text-anchor="start" x="160.5" y="-35.6" font-family="Arial" font-size="8.00">A.reg</text>
			<polygon fill="none" stroke="black" points="187.5,-30 187.5,-45 217.5,-45 217.5,-30 187.5,-30" />
			<text text-anchor="start" x="190.5" y="-35.6" font-family="Arial" font-size="8.00">0x00</text>
			<polygon fill="none" stroke="black" points="217.5,-30 217.5,-45 247.5,-45 247.5,-30 217.5,-30" />
			<text text-anchor="start" x="220.5" y="-35.6" font-family="Arial" font-size="8.00">0x00</text>
			<polygon fill="AliceBlue" stroke="none" points="157.5,-15 157.5,-30 187.5,-30 187.5,-15 157.5,-15" />
			<polygon fill="none" stroke="black" points="157.5,-15 157.5,-30 187.5,-30 187.5,-15 157.5,-15" />
			<text text-anchor="start" x="160.5" y="-20.6" font-family="Arial" font-size="8.00">B.reg</text>
			<polygon fill="none" stroke="black" points="187.5,-15 187.5,-30 217.5,-30 217.5,-15 187.5,-15" />
			<text text-anchor="start" x="190.5" y="-20.6" font-family="Arial" font-size="8.00">0x00</text>
			<polygon fill="none" stroke="black" points="217.5,-15 217.5,-30 247.5,-30 247.5,-15 217.5,-15" />
			<text text-anchor="start" x="220.5" y="-20.6" font-family="Arial" font-size="8.00">0x00</text>
		</g>
		<!-- init_8&#45;&gt;sign_changed_9 -->
		<g id="edge3" class="edge">
			<title>init_8-&gt;sign_changed_9</title>
			<path fill="none" stroke="ForestGreen" d="M-68.3608,-144.287C-11.3907,-125.297 79.0094,-95.1635 139.516,-74.9948" />
			<polygon fill="ForestGreen" stroke="ForestGreen" points="140.952,-78.2055 149.332,-71.7227 138.738,-71.5647 140.952,-78.2055" />
			<text text-anchor="middle" x="17.5774" y="-112.241" font-family="Arial" font-size="8.00">DpThresh</text>
		</g>
		<!-- init_18 -->
		<g id="node4" class="node">
			<title>init_18</title>
			<polygon fill="LemonChiffon" stroke="none" points="-166.5,249 -166.5,232 -76.5,232 -76.5,249 -166.5,249" />
			<polygon fill="none" stroke="black" points="-166.5,249 -166.5,232 -76.5,232 -76.5,249 -166.5,249" />
			<text text-anchor="start" x="-129.5" y="242" font-family="Arial" font-weight="bold" font-size="10.00">init</text>
			<polygon fill="AliceBlue" stroke="none" points="-166.5,264 -166.5,249 -136.5,249 -136.5,264 -166.5,264" />
			<polygon fill="none" stroke="black" points="-166.5,264 -166.5,249 -136.5,249 -136.5,264 -166.5,264" />
			<text text-anchor="start" x="-163.5" y="258.4" font-family="Arial" font-size="8.00">Cycle:</text>
			<polygon fill="none" stroke="black" points="-136.5,264 -136.5,249 -76.5,249 -76.5,264 -136.5,264" />
			<text text-anchor="start" x="-133.5" y="258.4" font-family="Arial" font-size="8.00">18</text>
			<polygon fill="AliceBlue" stroke="none" points="-166.5,279 -166.5,264 -136.5,264 -136.5,279 -166.5,279" />
			<polygon fill="none" stroke="black" points="-166.5,279 -166.5,264 -136.5,264 -136.5,279 -166.5,279" />
			<text text-anchor="start" x="-163.5" y="273.4" font-family="Arial" font-size="8.00">ACU</text>
			<polygon fill="none" stroke="black" points="-136.5,279 -136.5,264 -106.5,264 -106.5,279 -136.5,279" />
			<text text-anchor="start" x="-133.5" y="273.4" font-family="Arial" font-size="8.00">Beg</text>
			<polygon fill="none" stroke="black" points="-106.5,279 -106.5,264 -76.5,264 -76.5,279 -106.5,279" />
			<text text-anchor="start" x="-103.5" y="273.4" font-family="Arial" font-size="8.00">End</text>
			<polygon fill="AliceBlue" stroke="none" points="-166.5,294 -166.5,279 -136.5,279 -136.5,294 -166.5,294" />
			<polygon fill="none" stroke="black" points="-166.5,294 -166.5,279 -136.5,279 -136.5,294 -166.5,294" />
			<text text-anchor="start" x="-163.5" y="288.4" font-family="Arial" font-size="8.00">A.reg</text>
			<polygon fill="none" stroke="black" points="-136.5,294 -136.5,279 -106.5,279 -106.5,294 -136.5,294" />
			<text text-anchor="start" x="-133.5" y="288.4" font-family="Arial" font-size="8.00">0x00</text>
			<polygon fill="none" stroke="black" points="-106.5,294 -106.5,279 -76.5,279 -76.5,294 -106.5,294" />
			<text text-anchor="start" x="-103.5" y="288.4" font-family="Arial" font-size="8.00">0x00</text>
			<polygon fill="AliceBlue" stroke="none" points="-166.5,309 -166.5,294 -136.5,294 -136.5,309 -166.5,309" />
			<polygon fill="none" stroke="black" points="-166.5,309 -166.5,294 -136.5,294 -136.5,309 -166.5,309" />
			<text text-anchor="start" x="-163.5" y="303.4" font-family="Arial" font-size="8.00">B.reg</text>
			<polygon fill="none" stroke="black" points="-136.5,309 -136.5,294 -106.5,294 -106.5,309 -136.5,309" />
			<text text-anchor="start" x="-133.5" y="303.4" font-family="Arial" font-size="8.00">0x00</text>
			<polygon fill="none" stroke="black" points="-106.5,309 -106.5,294 -76.5,294 -76.5,309 -106.5,309" />
			<text text-anchor="start" x="-103.5" y="303.4" font-family="Arial" font-size="8.00">0x00</text>
		</g>
		<!-- init_13&#45;&gt;init_18 -->
		<g id="edge10" class="edge">
			<title>init_13-&gt;init_18</title>
			<path fill="none" stroke="Gray" stroke-dasharray="5,2" d="M-121.5,96.6746C-121.5,134.542 -121.5,189.573 -121.5,227.414" />
		</g>
		<!-- sign_changed_14 -->
		<g id="node8" class="node">
			<title>sign_changed_14</title>
			<polygon fill="LemonChiffon" stroke="none" points="157.5,141 157.5,124 247.5,124 247.5,141 157.5,141" />
			<polygon fill="none" stroke="black" points="157.5,141 157.5,124 247.5,124 247.5,141 157.5,141" />
			<text text-anchor="start" x="169" y="134" font-family="Arial" font-weight="bold" font-size="10.00">sign_changed</text>
			<polygon fill="AliceBlue" stroke="none" points="157.5,156 157.5,141 187.5,141 187.5,156 157.5,156" />
			<polygon fill="none" stroke="black" points="157.5,156 157.5,141 187.5,141 187.5,156 157.5,156" />
			<text text-anchor="start" x="160.5" y="150.4" font-family="Arial" font-size="8.00">Cycle:</text>
			<polygon fill="none" stroke="black" points="187.5,156 187.5,141 247.5,141 247.5,156 187.5,156" />
			<text text-anchor="start" x="190.5" y="150.4" font-family="Arial" font-size="8.00">14</text>
			<polygon fill="AliceBlue" stroke="none" points="157.5,171 157.5,156 187.5,156 187.5,171 157.5,171" />
			<polygon fill="none" stroke="black" points="157.5,171 157.5,156 187.5,156 187.5,171 157.5,171" />
			<text text-anchor="start" x="160.5" y="165.4" font-family="Arial" font-size="8.00">ACU</text>
			<polygon fill="none" stroke="black" points="187.5,171 187.5,156 217.5,156 217.5,171 187.5,171" />
			<text text-anchor="start" x="190.5" y="165.4" font-family="Arial" font-size="8.00">Beg</text>
			<polygon fill="none" stroke="black" points="217.5,171 217.5,156 247.5,156 247.5,171 217.5,171" />
			<text text-anchor="start" x="220.5" y="165.4" font-family="Arial" font-size="8.00">End</text>
			<polygon fill="AliceBlue" stroke="none" points="157.5,186 157.5,171 187.5,171 187.5,186 157.5,186" />
			<polygon fill="none" stroke="black" points="157.5,186 157.5,171 187.5,171 187.5,186 157.5,186" />
			<text text-anchor="start" x="160.5" y="180.4" font-family="Arial" font-size="8.00">A.reg</text>
			<polygon fill="none" stroke="black" points="187.5,186 187.5,171 217.5,171 217.5,186 187.5,186" />
			<text text-anchor="start" x="190.5" y="180.4" font-family="Arial" font-size="8.00">0x00</text>
			<polygon fill="none" stroke="black" points="217.5,186 217.5,171 247.5,171 247.5,186 217.5,186" />
			<text text-anchor="start" x="220.5" y="180.4" font-family="Arial" font-size="8.00">0x00</text>
			<polygon fill="AliceBlue" stroke="none" points="157.5,201 157.5,186 187.5,186 187.5,201 157.5,201" />
			<polygon fill="none" stroke="black" points="157.5,201 157.5,186 187.5,186 187.5,201 157.5,201" />
			<text text-anchor="start" x="160.5" y="195.4" font-family="Arial" font-size="8.00">B.reg</text>
			<polygon fill="none" stroke="black" points="187.5,201 187.5,186 217.5,186 217.5,201 187.5,201" />
			<text text-anchor="start" x="190.5" y="195.4" font-family="Arial" font-size="8.00">0x00</text>
			<polygon fill="none" stroke="black" points="217.5,201 217.5,186 247.5,186 247.5,201 217.5,201" />
			<text text-anchor="start" x="220.5" y="195.4" font-family="Arial" font-size="8.00">0x00</text>
		</g>
		<!-- init_13&#45;&gt;sign_changed_14 -->
		<g id="edge5" class="edge">
			<title>init_13-&gt;sign_changed_14</title>
			<path fill="none" stroke="ForestGreen" d="M-68.3608,71.7131C-11.3907,90.7031 79.0094,120.836 139.516,141.005" />
			<polygon fill="ForestGreen" stroke="ForestGreen" points="140.952,137.795 149.332,144.277 138.738,144.435 140.952,137.795" />
			<text text-anchor="middle" x="17.5774" y="103.759" font-family="Arial" font-size="8.00">DpThresh</text>
		</g>
		<!-- sign_did_not_change_19 -->
		<g id="node6" class="node">
			<title>sign_did_not_change_19</title>
			<polygon fill="LemonChiffon" stroke="none" points="-12.5,357 -12.5,340 94.5,340 94.5,357 -12.5,357" />
			<polygon fill="none" stroke="black" points="-12.5,357 -12.5,340 94.5,340 94.5,357 -12.5,357" />
			<text text-anchor="start" x="-9.5" y="350" font-family="Arial" font-weight="bold" font-size="10.00">sign_did_not_change</text>
			<polygon fill="AliceBlue" stroke="none" points="-12.5,372 -12.5,357 25.5,357 25.5,372 -12.5,372" />
			<polygon fill="none" stroke="black" points="-12.5,372 -12.5,357 25.5,357 25.5,372 -12.5,372" />
			<text text-anchor="start" x="-9.5" y="366.4" font-family="Arial" font-size="8.00">Cycle:</text>
			<polygon fill="none" stroke="black" points="25.5,372 25.5,357 94.5,357 94.5,372 25.5,372" />
			<text text-anchor="start" x="28.5" y="366.4" font-family="Arial" font-size="8.00">19</text>
			<polygon fill="AliceBlue" stroke="none" points="-12.5,387 -12.5,372 25.5,372 25.5,387 -12.5,387" />
			<polygon fill="none" stroke="black" points="-12.5,387 -12.5,372 25.5,372 25.5,387 -12.5,387" />
			<text text-anchor="start" x="-9.5" y="381.4" font-family="Arial" font-size="8.00">ACU</text>
			<polygon fill="none" stroke="black" points="25.5,387 25.5,372 59.5,372 59.5,387 25.5,387" />
			<text text-anchor="start" x="28.5" y="381.4" font-family="Arial" font-size="8.00">Beg</text>
			<polygon fill="none" stroke="black" points="59.5,387 59.5,372 94.5,372 94.5,387 59.5,387" />
			<text text-anchor="start" x="62.5" y="381.4" font-family="Arial" font-size="8.00">End</text>
			<polygon fill="AliceBlue" stroke="none" points="-12.5,402 -12.5,387 25.5,387 25.5,402 -12.5,402" />
			<polygon fill="none" stroke="black" points="-12.5,402 -12.5,387 25.5,387 25.5,402 -12.5,402" />
			<text text-anchor="start" x="-9.5" y="396.4" font-family="Arial" font-size="8.00">A.reg</text>
			<polygon fill="none" stroke="black" points="25.5,402 25.5,387 59.5,387 59.5,402 25.5,402" />
			<text text-anchor="start" x="28.5" y="396.4" font-family="Arial" font-size="8.00">0x00</text>
			<polygon fill="none" stroke="black" points="59.5,402 59.5,387 94.5,387 94.5,402 59.5,402" />
			<text text-anchor="start" x="62.5" y="396.4" font-family="Arial" font-size="8.00">0x00</text>
			<polygon fill="AliceBlue" stroke="none" points="-12.5,417 -12.5,402 25.5,402 25.5,417 -12.5,417" />
			<polygon fill="none" stroke="black" points="-12.5,417 -12.5,402 25.5,402 25.5,417 -12.5,417" />
			<text text-anchor="start" x="-9.5" y="411.4" font-family="Arial" font-size="8.00">B.reg</text>
			<polygon fill="none" stroke="black" points="25.5,417 25.5,402 59.5,402 59.5,417 25.5,417" />
			<text text-anchor="start" x="28.5" y="411.4" font-family="Arial" font-size="8.00">0x00</text>
			<polygon fill="none" stroke="black" points="59.5,417 59.5,402 94.5,402 94.5,417 59.5,417" />
			<text text-anchor="start" x="62.5" y="411.4" font-family="Arial" font-size="8.00">0x00</text>
		</g>
		<!-- init_18&#45;&gt;sign_did_not_change_19 -->
		<g id="edge9" class="edge">
			<title>init_18-&gt;sign_did_not_change_19</title>
			<path fill="none" stroke="ForestGreen" d="M-68.4551,305.363C-56.0409,313.639 -42.6282,322.581 -29.5988,331.267" />
			<polygon fill="ForestGreen" stroke="ForestGreen" points="-27.4853,328.47 -21.1062,336.929 -31.3682,334.294 -27.4853,328.47" />
			<text text-anchor="middle" x="-58.5269" y="315.715" font-family="Arial" font-size="8.00">false</text>
		</g>
		<!-- sign_did_not_change_4&#45;&gt;init_8 -->
		<g id="edge2" class="edge">
			<title>sign_did_not_change_4-&gt;init_8</title>
			<path fill="none" stroke="ForestGreen" d="M-21.2074,-228.862C-33.8486,-220.434 -47.1555,-211.563 -59.7966,-203.136" />
			<polygon fill="ForestGreen" stroke="ForestGreen" points="-58.1634,-200.018 -68.4254,-197.383 -62.0463,-205.842 -58.1634,-200.018" />
			<text text-anchor="middle" x="-50.002" y="-218.599" font-family="Arial" font-size="8.00">false</text>
		</g>
		<!-- sign_changed_9&#45;&gt;init_13 -->
		<g id="edge4" class="edge">
			<title>sign_changed_9-&gt;init_13</title>
			<path fill="none" stroke="ForestGreen" d="M149.361,-36.2869C92.3907,-17.2969 1.99059,12.8365 -58.5155,33.0052" />
			<polygon fill="ForestGreen" stroke="ForestGreen" points="-57.7381,36.4353 -68.3318,36.2773 -59.9518,29.7945 -57.7381,36.4353" />
			<text text-anchor="middle" x="35.9226" y="-4.24088" font-family="Arial" font-size="8.00">false</text>
		</g>
		<!-- sign_changed_9&#45;&gt;sign_changed_14 -->
		<g id="edge8" class="edge">
			<title>sign_changed_9-&gt;sign_changed_14</title>
			<path fill="none" stroke="Gray" stroke-dasharray="5,2" d="M202.5,-11.3254C202.5,26.5424 202.5,81.5731 202.5,119.414" />
		</g>
		<!-- sign_changed_14&#45;&gt;init_18 -->
		<g id="edge7" class="edge">
			<title>sign_changed_14-&gt;init_18</title>
			<path fill="none" stroke="ForestGreen" d="M149.361,179.713C92.3907,198.703 1.99059,228.836 -58.5155,249.005" />
			<polygon fill="ForestGreen" stroke="ForestGreen" points="-57.7381,252.435 -68.3318,252.277 -59.9518,245.795 -57.7381,252.435" />
			<text text-anchor="middle" x="35.9226" y="211.759" font-family="Arial" font-size="8.00">false</text>
		</g>
	</g>
</svg>