<svg width="100%" height="100%" viewBox="0.00 0.00 276.00 525.00" xmlns="http://www.w3.org/2000/svg" xmlns:xlink="http://www.w3.org/1999/xlink">
	<g id="graph0" class="graph" transform="scale(1 1) rotate(0) translate(121.8 262.5)">
		<title>dfb_call</title>
		<polygon fill="white" stroke="none" points="-121.8,262.5 -121.8,-262.5 154.2,-262.5 154.2,262.5 -121.8,262.5" />
		<g id="clust2" class="cluster">
			<title>cluster_sign_is_positive</title>
			<polygon fill="WhiteSmoke" stroke="SteelBlue" points="44.2,150.5 44.2,-150.5 150.2,-150.5 150.2,150.5 44.2,150.5" />
			<text text-anchor="middle" x="97.2" y="-140.1" font-family="Arial" font-size="8.00">sign_is_positive</text>
		</g>
		<g id="clust1" class="cluster">
			<title>cluster_init</title>
			<polygon fill="WhiteSmoke" stroke="SteelBlue" points="-117.8,258.5 -117.8,-258.5 -11.8,-258.5 -11.8,258.5 -117.8,258.5" />
			<text text-anchor="middle" x="-64.8" y="-248.1" font-family="Arial" font-size="8.00">init</text>
		</g>
		<!-- init_3 -->
		<g id="node1" class="node">
			<title>init_3</title>
			<polygon fill="LemonChiffon" stroke="none" points="-109.8,-237 -109.8,-254 -19.8,-254 -19.8,-237 -109.8,-237" />
			<polygon fill="none" stroke="black" points="-109.8,-237 -109.8,-254 -19.8,-254 -19.8,-237 -109.8,-237" />
			<text text-anchor="start" x="-72.8" y="-244" font-family="Arial" font-weight="bold" font-size="10.00">init</text>
			<polygon fill="AliceBlue" stroke="none" points="-109.8,-222 -109.8,-237 -79.8,-237 -79.8,-222 -109.8,-222" />
			<polygon fill="none" stroke="black" points="-109.8,-222 -109.8,-237 -79.8,-237 -79.8,-222 -109.8,-222" />
			<text text-anchor="start" x="-106.8" y="-227.6" font-family="Arial" font-size="8.00">Cycle:</text>
			<polygon fill="none" stroke="black" points="-79.8,-222 -79.8,-237 -19.8,-237 -19.8,-222 -79.8,-222" />
			<text text-anchor="start" x="-76.8" y="-227.6" font-family="Arial" font-size="8.00">3</text>
			<polygon fill="AliceBlue" stroke="none" points="-109.8,-207 -109.8,-222 -79.8,-222 -79.8,-207 -109.8,-207" />
			<polygon fill="none" stroke="black" points="-109.8,-207 -109.8,-222 -79.8,-222 -79.8,-207 -109.8,-207" />
			<text text-anchor="start" x="-106.8" y="-212.6" font-family="Arial" font-size="8.00">ACU</text>
			<polygon fill="none" stroke="black" points="-79.8,-207 -79.8,-222 -49.8,-222 -49.8,-207 -79.8,-207" />
			<text text-anchor="start" x="-76.8" y="-212.6" font-family="Arial" font-size="8.00">Beg</text>
			<polygon fill="none" stroke="black" points="-49.8,-207 -49.8,-222 -19.8,-222 -19.8,-207 -49.8,-207" />
			<text text-anchor="start" x="-46.8" y="-212.6" font-family="Arial" font-size="8.00">End</text>
			<polygon fill="AliceBlue" stroke="none" points="-109.8,-192 -109.8,-207 -79.8,-207 -79.8,-192 -109.8,-192" />
			<polygon fill="none" stroke="black" points="-109.8,-192 -109.8,-207 -79.8,-207 -79.8,-192 -109.8,-192" />
			<text text-anchor="start" x="-106.8" y="-197.6" font-family="Arial" font-size="8.00">A.reg</text>
			<polygon fill="none" stroke="black" points="-79.8,-192 -79.8,-207 -49.8,-207 -49.8,-192 -79.8,-192" />
			<polygon fill="none" stroke="black" points="-49.8,-192 -49.8,-207 -19.8,-207 -19.8,-192 -49.8,-192" />
			<text text-anchor="start" x="-46.8" y="-197.6" font-family="Arial" font-size="8.00">0x00</text>
			<polygon fill="AliceBlue" stroke="none" points="-109.8,-177 -109.8,-192 -79.8,-192 -79.8,-177 -109.8,-177" />
			<polygon fill="none" stroke="black" points="-109.8,-177 -109.8,-192 -79.8,-192 -79.8,-177 -109.8,-177" />
			<text text-anchor="start" x="-106.8" y="-182.6" font-family="Arial" font-size="8.00">B.reg</text>
			<polygon fill="none" stroke="black" points="-79.8,-177 -79.8,-192 -49.8,-192 -49.8,-177 -79.8,-177" />
			<polygon fill="none" stroke="black" points="-49.8,-177 -49.8,-192 -19.8,-192 -19.8,-177 -49.8,-177" />
			<text text-anchor="start" x="-46.8" y="-182.6" font-family="Arial" font-size="8.00">0x00</text>
		</g>
		<!-- sign_is_positive_4 -->
		<g id="node4" class="node">
			<title>sign_is_positive_4</title>
			<polygon fill="LemonChiffon" stroke="none" points="52.2,-129 52.2,-146 142.2,-146 142.2,-129 52.2,-129" />
			<polygon fill="none" stroke="black" points="52.2,-129 52.2,-146 142.2,-146 142.2,-129 52.2,-129" />
			<text text-anchor="start" x="59.7" y="-136" font-family="Arial" font-weight="bold" font-size="10.00">sign_is_positive</text>
			<polygon fill="AliceBlue" stroke="none" points="52.2,-114 52.2,-129 82.2,-129 82.2,-114 52.2,-114" />
			<polygon fill="none" stroke="black" points="52.2,-114 52.2,-129 82.2,-129 82.2,-114 52.2,-114" />
			<text text-anchor="start" x="55.2" y="-119.6" font-family="Arial" font-size="8.00">Cycle:</text>
			<polygon fill="none" stroke="black" points="82.2,-114 82.2,-129 142.2,-129 142.2,-114 82.2,-114" />
			<text text-anchor="start" x="85.2" y="-119.6" font-family="Arial" font-size="8.00">4</text>
			<polygon fill="AliceBlue" stroke="none" points="52.2,-99 52.2,-114 82.2,-114 82.2,-99 52.2,-99" />
			<polygon fill="none" stroke="black" points="52.2,-99 52.2,-114 82.2,-114 82.2,-99 52.2,-99" />
			<text text-anchor="start" x="55.2" y="-104.6" font-family="Arial" font-size="8.00">ACU</text>
			<polygon fill="none" stroke="black" points="82.2,-99 82.2,-114 112.2,-114 112.2,-99 82.2,-99" />
			<text text-anchor="start" x="85.2" y="-104.6" font-family="Arial" font-size="8.00">Beg</text>
			<polygon fill="none" stroke="black" points="112.2,-99 112.2,-114 142.2,-114 142.2,-99 112.2,-99" />
			<text text-anchor="start" x="115.2" y="-104.6" font-family="Arial" font-size="8.00">End</text>
			<polygon fill="AliceBlue" stroke="none" points="52.2,-84 52.2,-99 82.2,-99 82.2,-84 52.2,-84" />
			<polygon fill="none" stroke="black" points="52.2,-84 52.2,-99 82.2,-99 82.2,-84 52.2,-84" />
			<text text-anchor="start" x="55.2" y="-89.6" font-family="Arial" font-size="8.00">A.reg</text>
			<polygon fill="none" stroke="black" points="82.2,-84 82.2,-99 112.2,-99 112.2,-84 82.2,-84" />
			<text text-anchor="start" x="85.2" y="-89.6" font-family="Arial" font-size="8.00">0x00</text>
			<polygon fill="none" stroke="black" points="112.2,-84 112.2,-99 142.2,-99 142.2,-84 112.2,-84" />
			<text text-anchor="start" x="115.2" y="-89.6" font-family="Arial" font-size="8.00">0x00</text>
			<polygon fill="AliceBlue" stroke="none" points="52.2,-69 52.2,-84 82.2,-84 82.2,-69 52.2,-69" />
			<polygon fill="none" stroke="black" points="52.2,-69 52.2,-84 82.2,-84 82.2,-69 52.2,-69" />
			<text text-anchor="start" x="55.2" y="-74.6" font-family="Arial" font-size="8.00">B.reg</text>
			<polygon fill="none" stroke="black" points="82.2,-69 82.2,-84 112.2,-84 112.2,-69 82.2,-69" />
			<text text-anchor="start" x="85.2" y="-74.6" font-family="Arial" font-size="8.00">0x00</text>
			<polygon fill="none" stroke="black" points="112.2,-69 112.2,-84 142.2,-84 142.2,-69 112.2,-69" />
			<text text-anchor="start" x="115.2" y="-74.6" font-family="Arial" font-size="8.00">0x00</text>
		</g>
		<!-- init_3&#45;&gt;sign_is_positive_4 -->
		<g id="edge1" class="edge">
			<title>init_3-&gt;sign_is_positive_4</title>
			<path fill="none" stroke="ForestGreen" d="M-11.7551,-180.637C3.34952,-170.567 19.9324,-159.512 35.5046,-149.13" />
			<polygon fill="ForestGreen" stroke="ForestGreen" points="37.6569,-151.902 44.036,-143.443 33.774,-146.078 37.6569,-151.902" />
			<text text-anchor="middle" x="2.37472" y="-167.484" font-family="Arial" font-size="8.00">false</text>
		</g>
		<!-- init_8 -->
		<g id="node2" class="node">
			<title>init_8</title>
			<polygon fill="LemonChiffon" stroke="none" points="-109.8,-21 -109.8,-38 -19.8,-38 -19.8,-21 -109.8,-21" />
			<polygon fill="none" stroke="black" points="-109.8,-21 -109.8,-38 -19.8,-38 -19.8,-21 -109.8,-21" />
			<text text-anchor="start" x="-72.8" y="-28" font-family="Arial" font-weight="bold" font-size="10.00">init</text>
			<polygon fill="AliceBlue" stroke="none" points="-109.8,-6 -109.8,-21 -79.8,-21 -79.8,-6 -109.8,-6" />
			<polygon fill="none" stroke="black" points="-109.8,-6 -109.8,-21 -79.8,-21 -79.8,-6 -109.8,-6" />
			<text text-anchor="start" x="-106.8" y="-11.6" font-family="Arial" font-size="8.00">Cycle:</text>
			<polygon fill="none" stroke="black" points="-79.8,-6 -79.8,-21 -19.8,-21 -19.8,-6 -79.8,-6" />
			<text text-anchor="start" x="-76.8" y="-11.6" font-family="Arial" font-size="8.00">8</text>
			<polygon fill="AliceBlue" stroke="none" points="-109.8,9 -109.8,-6 -79.8,-6 -79.8,9 -109.8,9" />
			<polygon fill="none" stroke="black" points="-109.8,9 -109.8,-6 -79.8,-6 -79.8,9 -109.8,9" />
			<text text-anchor="start" x="-106.8" y="3.4" font-family="Arial" font-size="8.00">ACU</text>
			<polygon fill="none" stroke="black" points="-79.8,9 -79.8,-6 -49.8,-6 -49.8,9 -79.8,9" />
			<text text-anchor="start" x="-76.8" y="3.4" font-family="Arial" font-size="8.00">Beg</text>
			<polygon fill="none" stroke="black" points="-49.8,9 -49.8,-6 -19.8,-6 -19.8,9 -49.8,9" />
			<text text-anchor="start" x="-46.8" y="3.4" font-family="Arial" font-size="8.00">End</text>
			<polygon fill="AliceBlue" stroke="none" points="-109.8,24 -109.8,9 -79.8,9 -79.8,24 -109.8,24" />
			<polygon fill="none" stroke="black" points="-109.8,24 -109.8,9 -79.8,9 -79.8,24 -109.8,24" />
			<text text-anchor="start" x="-106.8" y="18.4" font-family="Arial" font-size="8.00">A.reg</text>
			<polygon fill="none" stroke="black" points="-79.8,24 -79.8,9 -49.8,9 -49.8,24 -79.8,24" />
			<text text-anchor="start" x="-76.8" y="18.4" font-family="Arial" font-size="8.00">0x00</text>
			<polygon fill="none" stroke="black" points="-49.8,24 -49.8,9 -19.8,9 -19.8,24 -49.8,24" />
			<text text-anchor="start" x="-46.8" y="18.4" font-family="Arial" font-size="8.00">0x00</text>
			<polygon fill="AliceBlue" stroke="none" points="-109.8,39 -109.8,24 -79.8,24 -79.8,39 -109.8,39" />
			<polygon fill="none" stroke="black" points="-109.8,39 -109.8,24 -79.8,24 -79.8,39 -109.8,39" />
			<text text-anchor="start" x="-106.8" y="33.4" font-family="Arial" font-size="8.00">B.reg</text>
			<polygon fill="none" stroke="black" points="-79.8,39 -79.8,24 -49.8,24 -49.8,39 -79.8,39" />
			<text text-anchor="start" x="-76.8" y="33.4" font-family="Arial" font-size="8.00">0x00</text>
			<polygon fill="none" stroke="black" points="-49.8,39 -49.8,24 -19.8,24 -19.8,39 -49.8,39" />
			<text text-anchor="start" x="-46.8" y="33.4" font-family="Arial" font-size="8.00">0x00</text>
		</g>
		<!-- sign_is_positive_9 -->
		<g id="node5" class="node">
			<title>sign_is_positive_9</title>
			<polygon fill="LemonChiffon" stroke="none" points="52.2,87 52.2,70 142.2,70 142.2,87 52.2,87" />
			<polygon fill="none" stroke="black" points="52.2,87 52.2,70 142.2,70 142.2,87 52.2,87" />
			<text text-anchor="start" x="59.7" y="80" font-family="Arial" font-weight="bold" font-size="10.00">sign_is_positive</text>
			<polygon fill="AliceBlue" stroke="none" points="52.2,102 52.2,87 82.2,87 82.2,102 52.2,102" />
			<polygon fill="none" stroke="black" points="52.2,102 52.2,87 82.2,87 82.2,102 52.2,102" />
			<text text-anchor="start" x="55.2" y="96.4" font-family="Arial" font-size="8.00">Cycle:</text>
			<polygon fill="none" stroke="black" points="82.2,102 82.2,87 142.2,87 142.2,102 82.2,102" />
			<text text-anchor="start" x="85.2" y="96.4" font-family="Arial" font-size="8.00">9</text>
			<polygon fill="AliceBlue" stroke="none" points="52.2,117 52.2,102 82.2,102 82.2,117 52.2,117" />
			<polygon fill="none" stroke="black" points="52.2,117 52.2,102 82.2,102 82.2,117 52.2,117" />
			<text text-anchor="start" x="55.2" y="111.4" font-family="Arial" font-size="8.00">ACU</text>
			<polygon fill="none" stroke="black" points="82.2,117 82.2,102 112.2,102 112.2,117 82.2,117" />
			<text text-anchor="start" x="85.2" y="111.4" font-family="Arial" font-size="8.00">Beg</text>
			<polygon fill="none" stroke="black" points="112.2,117 112.2,102 142.2,102 142.2,117 112.2,117" />
			<text text-anchor="start" x="115.2" y="111.4" font-family="Arial" font-size="8.00">End</text>
			<polygon fill="AliceBlue" stroke="none" points="52.2,132 52.2,117 82.2,117 82.2,132 52.2,132" />
			<polygon fill="none" stroke="black" points="52.2,132 52.2,117 82.2,117 82.2,132 52.2,132" />
			<text text-anchor="start" x="55.2" y="126.4" font-family="Arial" font-size="8.00">A.reg</text>
			<polygon fill="none" stroke="black" points="82.2,132 82.2,117 112.2,117 112.2,132 82.2,132" />
			<text text-anchor="start" x="85.2" y="126.4" font-family="Arial" font-size="8.00">0x00</text>
			<polygon fill="none" stroke="black" points="112.2,132 112.2,117 142.2,117 142.2,132 112.2,132" />
			<text text-anchor="start" x="115.2" y="126.4" font-family="Arial" font-size="8.00">0x00</text>
			<polygon fill="AliceBlue" stroke="none" points="52.2,147 52.2,132 82.2,132 82.2,147 52.2,147" />
			<polygon fill="none" stroke="black" points="52.2,147 52.2,132 82.2,132 82.2,147 52.2,147" />
			<text text-anchor="start" x="55.2" y="141.4" font-family="Arial" font-size="8.00">B.reg</text>
			<polygon fill="none" stroke="black" points="82.2,147 82.2,132 112.2,132 112.2,147 82.2,147" />
			<text text-anchor="start" x="85.2" y="141.4" font-family="Arial" font-size="8.00">0x00</text>
			<polygon fill="none" stroke="black" points="112.2,147 112.2,132 142.2,132 142.2,147 112.2,147" />
			<text text-anchor="start" x="115.2" y="141.4" font-family="Arial" font-size="8.00">0x00</text>
		</g>
		<!-- init_8&#45;&gt;sign_is_positive_9 -->
		<g id="edge3" class="edge">
			<title>init_8-&gt;sign_is_positive_9</title>
			<path fill="none" stroke="ForestGreen" d="M-11.7551,35.3632C3.34952,45.433 19.9324,56.4883 35.5046,66.8697" />
			<polygon fill="ForestGreen" stroke="ForestGreen" points="37.6569,64.0981 44.036,72.5573 33.774,69.9224 37.6569,64.0981" />
			<text text-anchor="middle" x="2.37472" y="48.5165" font-family="Arial" font-size="8.00">false</text>
		</g>
		<!-- init_13 -->
		<g id="node3" class="node">
			<title>init_13</title>
			<polygon fill="LemonChiffon" stroke="none" points="-109.8,195 -109.8,178 -19.8,178 -19.8,195 -109.8,195" />
			<polygon fill="none" stroke="black" points="-109.8,195 -109.8,178 -19.8,178 -19.8,195 -109.8,195" />
			<text text-anchor="start" x="-72.8" y="188" font-family="Arial" font-weight="bold" font-size="10.00">init</text>
			<polygon fill="AliceBlue" stroke="none" points="-109.8,210 -109.8,195 -79.8,195 -79.8,210 -109.8,210" />
			<polygon fill="none" stroke="black" points="-109.8,210 -109.8,195 -79.8,195 -79.8,210 -109.8,210" />
			<text text-anchor="start" x="-106.8" y="204.4" font-family="Arial" font-size="8.00">Cycle:</text>
			<polygon fill="none" stroke="black" points="-79.8,210 -79.8,195 -19.8,195 -19.8,210 -79.8,210" />
			<text text-anchor="start" x="-76.8" y="204.4" font-family="Arial" font-size="8.00">13</text>
			<polygon fill="AliceBlue" stroke="none" points="-109.8,225 -109.8,210 -79.8,210 -79.8,225 -109.8,225" />
			<polygon fill="none" stroke="black" points="-109.8,225 -109.8,210 -79.8,210 -79.8,225 -109.8,225" />
			<text text-anchor="start" x="-106.8" y="219.4" font-family="Arial" font-size="8.00">ACU</text>
			<polygon fill="none" stroke="black" points="-79.8,225 -79.8,210 -49.8,210 -49.8,225 -79.8,225" />
			<text text-anchor="start" x="-76.8" y="219.4" font-family="Arial" font-size="8.00">Beg</text>
			<polygon fill="none" stroke="black" points="-49.8,225 -49.8,210 -19.8,210 -19.8,225 -49.8,225" />
			<text text-anchor="start" x="-46.8" y="219.4" font-family="Arial" font-size="8.00">End</text>
			<polygon fill="AliceBlue" stroke="none" points="-109.8,240 -109.8,225 -79.8,225 -79.8,240 -109.8,240" />
			<polygon fill="none" stroke="black" points="-109.8,240 -109.8,225 -79.8,225 -79.8,240 -109.8,240" />
			<text text-anchor="start" x="-106.8" y="234.4" font-family="Arial" font-size="8.00">A.reg</text>
			<polygon fill="none" stroke="black" points="-79.8,240 -79.8,225 -49.8,225 -49.8,240 -79.8,240" />
			<text text-anchor="start" x="-76.8" y="234.4" font-family="Arial" font-size="8.00">0x00</text>
			<polygon fill="none" stroke="black" points="-49.8,240 -49.8,225 -19.8,225 -19.8,240 -49.8,240" />
			<text text-anchor="start" x="-46.8" y="234.4" font-family="Arial" font-size="8.00">0x00</text>
			<polygon fill="AliceBlue" stroke="none" points="-109.8,255 -109.8,240 -79.8,240 -79.8,255 -109.8,255" />
			<polygon fill="none" stroke="black" points="-109.8,255 -109.8,240 -79.8,240 -79.8,255 -109.8,255" />
			<text text-anchor="start" x="-106.8" y="249.4" font-family="Arial" font-size="8.00">B.reg</text>
			<polygon fill="none" stroke="black" points="-79.8,255 -79.8,240 -49.8,240 -49.8,255 -79.8,255" />
			<text text-anchor="start" x="-76.8" y="249.4" font-family="Arial" font-size="8.00">0x00</text>
			<polygon fill="none" stroke="black" points="-49.8,255 -49.8,240 -19.8,240 -19.8,255 -49.8,255" />
			<text text-anchor="start" x="-46.8" y="249.4" font-family="Arial" font-size="8.00">0x00</text>
		</g>
		<!-- sign_is_positive_4&#45;&gt;init_8 -->
		<g id="edge2" class="edge">
			<title>sign_is_positive_4-&gt;init_8</title>
			<path fill="none" stroke="ForestGreen" d="M44.1551,-72.6368C29.0505,-62.567 12.4676,-51.5117 -3.10458,-41.1303" />
			<polygon fill="ForestGreen" stroke="ForestGreen" points="-1.37398,-38.0776 -11.636,-35.4427 -5.25691,-43.9019 -1.37398,-38.0776" />
			<text text-anchor="middle" x="11.0253" y="-59.4835" font-family="Arial" font-size="8.00">false</text>
		</g>
		<!-- sign_is_positive_4&#45;&gt;sign_is_positive_9 -->
		<g id="edge5" class="edge">
			<title>sign_is_positive_4-&gt;sign_is_positive_9</title>
			<path fill="none" stroke="Gray" stroke-dasharray="5,2" d="M97.2,-65.3254C97.2,-27.4576 97.2,27.5731 97.2,65.414" />
		</g>
		<!-- sign_is_positive_9&#45;&gt;init_13 -->
		<g id="edge4" class="edge">
			<title>sign_is_positive_9-&gt;init_13</title>
			<path fill="none" stroke="ForestGreen" d="M44.1551,143.363C29.0505,153.433 12.4676,164.488 -3.10458,174.87" />
			<polygon fill="ForestGreen" stroke="ForestGreen" points="-1.37398,177.922 -11.636,180.557 -5.25691,172.098 -1.37398,177.922" />
			<text text-anchor="middle" x="11.0253" y="156.516" font-family="Arial" font-size="8.00">false</text>
		</g>
	</g>
</svg>