<svg width="60" height="50" xmlns="http://www.w3.org/2000/svg" xmlns:svg="http://www.w3.org/2000/svg">
 <g>
  <title>Layer 1</title>
  <!-- <rect id="svg_3" height="60" width="60" y="0" x="0" stroke-linecap="null" stroke-linejoin="null" stroke-dasharray="null" fill="none" stroke="#cccccc"/> -->
  <line id="svg_11" y2="10" x2="50" y1="10" x1="0" stroke-linecap="null" stroke-linejoin="null" stroke-dasharray="null" stroke-width="null" stroke="#ffffff" fill="none"/>
  <line id="svg_12" y2="25" x2="20" y1="10" x1="20" stroke-linecap="null" stroke-linejoin="null" stroke-dasharray="null" stroke-width="null" stroke="#ffffff" fill="none"/>
  <line id="svg_15" y2="25" x2="40" y1="10" x1="40" stroke-linecap="null" stroke-linejoin="null" stroke-dasharray="null" stroke-width="null" stroke="#ffffff" fill="none"/>
  <line id="svg_16" y2="40" x2="30" y1="25" x1="20" stroke-linecap="null" stroke-linejoin="null" stroke-dasharray="null" stroke-width="null" stroke="#ffffff" fill="none"/>
  <line id="svg_18" y2="40" x2="30" y1="25" x1="40" stroke-linecap="null" stroke-linejoin="null" stroke-dasharray="null" stroke-width="null" stroke="#ffffff" fill="none"/>
  <line id="svg_20" y2="48" x2="30" y1="40" x1="30" stroke-linecap="null" stroke-linejoin="null" stroke-dasharray="null" stroke-width="null" stroke="#ffffff" fill="none"/>
  <ellipse id="svg_10" ry="5" rx="5" cy="40" cx="30" stroke-linecap="null" stroke-linejoin="null" stroke-dasharray="null" stroke-width="null" stroke="#ff0000" fill="#ff0000"/>
  <ellipse id="svg_9" ry="5" rx="5" cy="25" cx="40" stroke-linecap="null" stroke-linejoin="null" stroke-dasharray="null" stroke-width="null" stroke="#ffff00" fill="#ffff00"/>
  <ellipse stroke="#ffff00" ry="5" rx="5" id="svg_1" cy="25" cx="20" stroke-linecap="null" stroke-linejoin="null" stroke-dasharray="null" stroke-width="null" fill="#ffff00"/>
  <rect id="svg_7" height="10" width="10" y="6" x="45" stroke-linecap="null" stroke-linejoin="null" stroke-dasharray="null" stroke-width="null" stroke="#007bff" fill="#007bff"/>
  <rect id="svg_4" height="10" width="10" y="6" x="25.17798" stroke-linecap="null" stroke-linejoin="null" stroke-dasharray="null" stroke-width="null" stroke="#007bff" fill="#007bff"/>
  <rect id="svg_2" height="10" width="10" y="6" x="5" stroke-linecap="null" stroke-linejoin="null" stroke-dasharray="null" stroke-width="null" stroke="#007bff" fill="#007bff"/>
  <line stroke="#4c4c4c" transform="rotate(-45 20,25) " id="svg_17" y2="25" x2="24" y1="25" x1="16" stroke-linecap="null" stroke-linejoin="null" stroke-dasharray="null" stroke-width="null" fill="none"/>
  <line stroke="#4c4c4c" transform="rotate(45 20,25) " y2="24.95559" x2="24" y1="25" x1="16" stroke-linecap="null" stroke-linejoin="null" stroke-dasharray="null" stroke-width="null" fill="none" id="svg_21"/>
  <line stroke="#4c4c4c" transform="rotate(45 40,25) " y2="25" x2="44" y1="25" x1="36" stroke-linecap="null" stroke-linejoin="null" stroke-dasharray="null" stroke-width="null" fill="none" id="svg_23"/>
  <line stroke="#4c4c4c" transform="rotate(-45 40,25) " y2="25" x2="44" y1="25" x1="36" stroke-linecap="null" stroke-linejoin="null" stroke-dasharray="null" stroke-width="null" fill="none" id="svg_24"/>
  <line stroke="#4c4c4c" y2="40" x2="34" y1="40" x1="26" stroke-linecap="null" stroke-linejoin="null" stroke-dasharray="null" stroke-width="null" fill="none" id="svg_8"/>
  <line stroke="#4c4c4c" transform="rotate(90 30,40) " y2="40" x2="34" y1="40" x1="26" stroke-linecap="null" stroke-linejoin="null" stroke-dasharray="null" stroke-width="null" fill="none" id="svg_14"/>
  <line id="svg_6" y2="0" x2="60" y1="0" x1="0" stroke-linecap="null" stroke-linejoin="null" stroke-dasharray="null" stroke="#cccccc" fill="none"/>
  <line id="svg_13" y2="50" x2="60" y1="50" x1="0" stroke-linecap="null" stroke-linejoin="null" stroke-dasharray="null" stroke="#cccccc" fill="none"/>
 </g>
</svg>