<svg width="100%" height="100%" viewBox="0.00 0.00 276.00 201.00" xmlns="http://www.w3.org/2000/svg" xmlns:xlink="http://www.w3.org/1999/xlink">
	<g id="graph0" class="graph" transform="scale(1 1) rotate(0) translate(138 100.5)">
		<title>dfb_call</title>
		<polygon fill="white" stroke="none" points="-138,100.5 -138,-100.5 138,-100.5 138,100.5 -138,100.5" />
		<g id="clust1" class="cluster">
			<title>cluster_wait_for_in1</title>
			<polygon fill="WhiteSmoke" stroke="SteelBlue" points="-134,-11.5 -134,-96.5 -28,-96.5 -28,-11.5 -134,-11.5" />
			<text text-anchor="middle" x="-81" y="-86.1" font-family="Arial" font-size="8.00">wait_for_in1</text>
		</g>
		<g id="clust2" class="cluster">
			<title>cluster_release_met</title>
			<polygon fill="WhiteSmoke" stroke="SteelBlue" points="28,96.5 28,11.5 134,11.5 134,96.5 28,96.5" />
			<text text-anchor="middle" x="81" y="21.9" font-family="Arial" font-size="8.00">release_met</text>
		</g>
		<!-- wait_for_in1_2 -->
		<g id="node1" class="node">
			<title>wait_for_in1_2</title>
			<polygon fill="LemonChiffon" stroke="none" points="-126,-75 -126,-92 -36,-92 -36,-75 -126,-75" />
			<polygon fill="none" stroke="black" points="-126,-75 -126,-92 -36,-92 -36,-75 -126,-75" />
			<text text-anchor="start" x="-110" y="-82" font-family="Arial" font-weight="bold" font-size="10.00">wait_for_in1</text>
			<polygon fill="AliceBlue" stroke="none" points="-126,-60 -126,-75 -96,-75 -96,-60 -126,-60" />
			<polygon fill="none" stroke="black" points="-126,-60 -126,-75 -96,-75 -96,-60 -126,-60" />
			<text text-anchor="start" x="-123" y="-65.6" font-family="Arial" font-size="8.00">Cycle:</text>
			<polygon fill="none" stroke="black" points="-96,-60 -96,-75 -36,-75 -36,-60 -96,-60" />
			<text text-anchor="start" x="-93" y="-65.6" font-family="Arial" font-size="8.00">2</text>
			<polygon fill="AliceBlue" stroke="none" points="-126,-45 -126,-60 -96,-60 -96,-45 -126,-45" />
			<polygon fill="none" stroke="black" points="-126,-45 -126,-60 -96,-60 -96,-45 -126,-45" />
			<text text-anchor="start" x="-123" y="-50.6" font-family="Arial" font-size="8.00">ACU</text>
			<polygon fill="none" stroke="black" points="-96,-45 -96,-60 -66,-60 -66,-45 -96,-45" />
			<text text-anchor="start" x="-93" y="-50.6" font-family="Arial" font-size="8.00">Beg</text>
			<polygon fill="none" stroke="black" points="-66,-45 -66,-60 -36,-60 -36,-45 -66,-45" />
			<text text-anchor="start" x="-63" y="-50.6" font-family="Arial" font-size="8.00">End</text>
			<polygon fill="AliceBlue" stroke="none" points="-126,-30 -126,-45 -96,-45 -96,-30 -126,-30" />
			<polygon fill="none" stroke="black" points="-126,-30 -126,-45 -96,-45 -96,-30 -126,-30" />
			<text text-anchor="start" x="-123" y="-35.6" font-family="Arial" font-size="8.00">A.reg</text>
			<polygon fill="none" stroke="black" points="-96,-30 -96,-45 -66,-45 -66,-30 -96,-30" />
			<polygon fill="none" stroke="black" points="-66,-30 -66,-45 -36,-45 -36,-30 -66,-30" />
			<text text-anchor="start" x="-63" y="-35.6" font-family="Arial" font-size="8.00">0x00</text>
			<polygon fill="AliceBlue" stroke="none" points="-126,-15 -126,-30 -96,-30 -96,-15 -126,-15" />
			<polygon fill="none" stroke="black" points="-126,-15 -126,-30 -96,-30 -96,-15 -126,-15" />
			<text text-anchor="start" x="-123" y="-20.6" font-family="Arial" font-size="8.00">B.reg</text>
			<polygon fill="none" stroke="black" points="-96,-15 -96,-30 -66,-30 -66,-15 -96,-15" />
			<polygon fill="none" stroke="black" points="-66,-15 -66,-30 -36,-30 -36,-15 -66,-15" />
			<text text-anchor="start" x="-63" y="-20.6" font-family="Arial" font-size="8.00">0x00</text>
		</g>
		<!-- release_met_5 -->
		<g id="node2" class="node">
			<title>release_met_5</title>
			<polygon fill="LemonChiffon" stroke="none" points="36,33 36,16 126,16 126,33 36,33" />
			<polygon fill="none" stroke="black" points="36,33 36,16 126,16 126,33 36,33" />
			<text text-anchor="start" x="51.5" y="26" font-family="Arial" font-weight="bold" font-size="10.00">release_met</text>
			<polygon fill="AliceBlue" stroke="none" points="36,48 36,33 66,33 66,48 36,48" />
			<polygon fill="none" stroke="black" points="36,48 36,33 66,33 66,48 36,48" />
			<text text-anchor="start" x="39" y="42.4" font-family="Arial" font-size="8.00">Cycle:</text>
			<polygon fill="none" stroke="black" points="66,48 66,33 126,33 126,48 66,48" />
			<text text-anchor="start" x="69" y="42.4" font-family="Arial" font-size="8.00">5</text>
			<polygon fill="AliceBlue" stroke="none" points="36,63 36,48 66,48 66,63 36,63" />
			<polygon fill="none" stroke="black" points="36,63 36,48 66,48 66,63 36,63" />
			<text text-anchor="start" x="39" y="57.4" font-family="Arial" font-size="8.00">ACU</text>
			<polygon fill="none" stroke="black" points="66,63 66,48 96,48 96,63 66,63" />
			<text text-anchor="start" x="69" y="57.4" font-family="Arial" font-size="8.00">Beg</text>
			<polygon fill="none" stroke="black" points="96,63 96,48 126,48 126,63 96,63" />
			<text text-anchor="start" x="99" y="57.4" font-family="Arial" font-size="8.00">End</text>
			<polygon fill="AliceBlue" stroke="none" points="36,78 36,63 66,63 66,78 36,78" />
			<polygon fill="none" stroke="black" points="36,78 36,63 66,63 66,78 36,78" />
			<text text-anchor="start" x="39" y="72.4" font-family="Arial" font-size="8.00">A.reg</text>
			<polygon fill="none" stroke="black" points="66,78 66,63 96,63 96,78 66,78" />
			<text text-anchor="start" x="69" y="72.4" font-family="Arial" font-size="8.00">0x00</text>
			<polygon fill="none" stroke="black" points="96,78 96,63 126,63 126,78 96,78" />
			<text text-anchor="start" x="99" y="72.4" font-family="Arial" font-size="8.00">0x01</text>
			<polygon fill="AliceBlue" stroke="none" points="36,93 36,78 66,78 66,93 36,93" />
			<polygon fill="none" stroke="black" points="36,93 36,78 66,78 66,93 36,93" />
			<text text-anchor="start" x="39" y="87.4" font-family="Arial" font-size="8.00">B.reg</text>
			<polygon fill="none" stroke="black" points="66,93 66,78 96,78 96,93 66,93" />
			<text text-anchor="start" x="69" y="87.4" font-family="Arial" font-size="8.00">0x00</text>
			<polygon fill="none" stroke="black" points="96,93 96,78 126,78 126,93 96,93" />
			<text text-anchor="start" x="99" y="87.4" font-family="Arial" font-size="8.00">0x00</text>
		</g>
		<!-- wait_for_in1_2&#45;&gt;release_met_5 -->
		<g id="edge1" class="edge">
			<title>wait_for_in1_2-&gt;release_met_5</title>
			<path fill="none" stroke="ForestGreen" d="M-27.9551,-18.6368C-12.8505,-8.56699 3.73244,2.48829 19.3046,12.8697" />
			<polygon fill="ForestGreen" stroke="ForestGreen" points="21.4569,10.0981 27.836,18.5573 17.574,15.9224 21.4569,10.0981" />
			<text text-anchor="middle" x="-13.8253" y="-5.48352" font-family="Arial" font-size="8.00">false</text>
		</g>
	</g>
</svg>