<svg width="100%" height="100%" viewBox="0.00 0.00 438.00 525.00" xmlns="http://www.w3.org/2000/svg" xmlns:xlink="http://www.w3.org/1999/xlink">
	<g id="graph0" class="graph" transform="scale(1 1) rotate(0) translate(251.4 262.5)">
		<title>dfb_call</title>
		<polygon fill="white" stroke="none" points="-251.4,262.5 -251.4,-262.5 186.6,-262.5 186.6,262.5 -251.4,262.5" />
		<g id="clust1" class="cluster">
			<title>cluster_initial</title>
			<polygon fill="WhiteSmoke" stroke="SteelBlue" points="-247.4,-173.5 -247.4,-258.5 -141.4,-258.5 -141.4,-173.5 -247.4,-173.5" />
			<text text-anchor="middle" x="-194.4" y="-248.1" font-family="Arial" font-size="8.00">initial</text>
		</g>
		<g id="clust3" class="cluster">
			<title>cluster_dataRead</title>
			<polygon fill="WhiteSmoke" stroke="SteelBlue" points="76.6,258.5 76.6,-42.5 182.6,-42.5 182.6,258.5 76.6,258.5" />
			<text text-anchor="middle" x="129.6" y="-32.1" font-family="Arial" font-size="8.00">dataRead</text>
		</g>
		<g id="clust2" class="cluster">
			<title>cluster_wait_for_in1</title>
			<polygon fill="WhiteSmoke" stroke="SteelBlue" points="-85.4,150.5 -85.4,-150.5 20.6,-150.5 20.6,150.5 -85.4,150.5" />
			<text text-anchor="middle" x="-32.4" y="-140.1" font-family="Arial" font-size="8.00">wait_for_in1</text>
		</g>
		<!-- initial_1 -->
		<g id="node1" class="node">
			<title>initial_1</title>
			<polygon fill="LemonChiffon" stroke="none" points="-239.4,-237 -239.4,-254 -149.4,-254 -149.4,-237 -239.4,-237" />
			<polygon fill="none" stroke="black" points="-239.4,-237 -239.4,-254 -149.4,-254 -149.4,-237 -239.4,-237" />
			<text text-anchor="start" x="-208.4" y="-244" font-family="Arial" font-weight="bold" font-size="10.00">initial</text>
			<polygon fill="AliceBlue" stroke="none" points="-239.4,-222 -239.4,-237 -209.4,-237 -209.4,-222 -239.4,-222" />
			<polygon fill="none" stroke="black" points="-239.4,-222 -239.4,-237 -209.4,-237 -209.4,-222 -239.4,-222" />
			<text text-anchor="start" x="-236.4" y="-227.6" font-family="Arial" font-size="8.00">Cycle:</text>
			<polygon fill="none" stroke="black" points="-209.4,-222 -209.4,-237 -149.4,-237 -149.4,-222 -209.4,-222" />
			<text text-anchor="start" x="-206.4" y="-227.6" font-family="Arial" font-size="8.00">1</text>
			<polygon fill="AliceBlue" stroke="none" points="-239.4,-207 -239.4,-222 -209.4,-222 -209.4,-207 -239.4,-207" />
			<polygon fill="none" stroke="black" points="-239.4,-207 -239.4,-222 -209.4,-222 -209.4,-207 -239.4,-207" />
			<text text-anchor="start" x="-236.4" y="-212.6" font-family="Arial" font-size="8.00">ACU</text>
			<polygon fill="none" stroke="black" points="-209.4,-207 -209.4,-222 -179.4,-222 -179.4,-207 -209.4,-207" />
			<text text-anchor="start" x="-206.4" y="-212.6" font-family="Arial" font-size="8.00">Beg</text>
			<polygon fill="none" stroke="black" points="-179.4,-207 -179.4,-222 -149.4,-222 -149.4,-207 -179.4,-207" />
			<text text-anchor="start" x="-176.4" y="-212.6" font-family="Arial" font-size="8.00">End</text>
			<polygon fill="AliceBlue" stroke="none" points="-239.4,-192 -239.4,-207 -209.4,-207 -209.4,-192 -239.4,-192" />
			<polygon fill="none" stroke="black" points="-239.4,-192 -239.4,-207 -209.4,-207 -209.4,-192 -239.4,-192" />
			<text text-anchor="start" x="-236.4" y="-197.6" font-family="Arial" font-size="8.00">A.reg</text>
			<polygon fill="none" stroke="black" points="-209.4,-192 -209.4,-207 -179.4,-207 -179.4,-192 -209.4,-192" />
			<polygon fill="none" stroke="black" points="-179.4,-192 -179.4,-207 -149.4,-207 -149.4,-192 -179.4,-192" />
			<text text-anchor="start" x="-176.4" y="-197.6" font-family="Arial" font-size="8.00">0x00</text>
			<polygon fill="AliceBlue" stroke="none" points="-239.4,-177 -239.4,-192 -209.4,-192 -209.4,-177 -239.4,-177" />
			<polygon fill="none" stroke="black" points="-239.4,-177 -239.4,-192 -209.4,-192 -209.4,-177 -239.4,-177" />
			<text text-anchor="start" x="-236.4" y="-182.6" font-family="Arial" font-size="8.00">B.reg</text>
			<polygon fill="none" stroke="black" points="-209.4,-177 -209.4,-192 -179.4,-192 -179.4,-177 -209.4,-177" />
			<polygon fill="none" stroke="black" points="-179.4,-177 -179.4,-192 -149.4,-192 -149.4,-177 -179.4,-177" />
			<text text-anchor="start" x="-176.4" y="-182.6" font-family="Arial" font-size="8.00">0x00</text>
		</g>
		<!-- wait_for_in1_2 -->
		<g id="node2" class="node">
			<title>wait_for_in1_2</title>
			<polygon fill="LemonChiffon" stroke="none" points="-77.4,-129 -77.4,-146 12.6,-146 12.6,-129 -77.4,-129" />
			<polygon fill="none" stroke="black" points="-77.4,-129 -77.4,-146 12.6,-146 12.6,-129 -77.4,-129" />
			<text text-anchor="start" x="-61.4" y="-136" font-family="Arial" font-weight="bold" font-size="10.00">wait_for_in1</text>
			<polygon fill="AliceBlue" stroke="none" points="-77.4,-114 -77.4,-129 -47.4,-129 -47.4,-114 -77.4,-114" />
			<polygon fill="none" stroke="black" points="-77.4,-114 -77.4,-129 -47.4,-129 -47.4,-114 -77.4,-114" />
			<text text-anchor="start" x="-74.4" y="-119.6" font-family="Arial" font-size="8.00">Cycle:</text>
			<polygon fill="none" stroke="black" points="-47.4,-114 -47.4,-129 12.6,-129 12.6,-114 -47.4,-114" />
			<text text-anchor="start" x="-44.4" y="-119.6" font-family="Arial" font-size="8.00">2</text>
			<polygon fill="AliceBlue" stroke="none" points="-77.4,-99 -77.4,-114 -47.4,-114 -47.4,-99 -77.4,-99" />
			<polygon fill="none" stroke="black" points="-77.4,-99 -77.4,-114 -47.4,-114 -47.4,-99 -77.4,-99" />
			<text text-anchor="start" x="-74.4" y="-104.6" font-family="Arial" font-size="8.00">ACU</text>
			<polygon fill="none" stroke="black" points="-47.4,-99 -47.4,-114 -17.4,-114 -17.4,-99 -47.4,-99" />
			<text text-anchor="start" x="-44.4" y="-104.6" font-family="Arial" font-size="8.00">Beg</text>
			<polygon fill="none" stroke="black" points="-17.4,-99 -17.4,-114 12.6,-114 12.6,-99 -17.4,-99" />
			<text text-anchor="start" x="-14.4" y="-104.6" font-family="Arial" font-size="8.00">End</text>
			<polygon fill="AliceBlue" stroke="none" points="-77.4,-84 -77.4,-99 -47.4,-99 -47.4,-84 -77.4,-84" />
			<polygon fill="none" stroke="black" points="-77.4,-84 -77.4,-99 -47.4,-99 -47.4,-84 -77.4,-84" />
			<text text-anchor="start" x="-74.4" y="-89.6" font-family="Arial" font-size="8.00">A.reg</text>
			<polygon fill="none" stroke="black" points="-47.4,-84 -47.4,-99 -17.4,-99 -17.4,-84 -47.4,-84" />
			<text text-anchor="start" x="-44.4" y="-89.6" font-family="Arial" font-size="8.00">0x00</text>
			<polygon fill="none" stroke="black" points="-17.4,-84 -17.4,-99 12.6,-99 12.6,-84 -17.4,-84" />
			<text text-anchor="start" x="-14.4" y="-89.6" font-family="Arial" font-size="8.00">0x00</text>
			<polygon fill="AliceBlue" stroke="none" points="-77.4,-69 -77.4,-84 -47.4,-84 -47.4,-69 -77.4,-69" />
			<polygon fill="none" stroke="black" points="-77.4,-69 -77.4,-84 -47.4,-84 -47.4,-69 -77.4,-69" />
			<text text-anchor="start" x="-74.4" y="-74.6" font-family="Arial" font-size="8.00">B.reg</text>
			<polygon fill="none" stroke="black" points="-47.4,-69 -47.4,-84 -17.4,-84 -17.4,-69 -47.4,-69" />
			<text text-anchor="start" x="-44.4" y="-74.6" font-family="Arial" font-size="8.00">0x00</text>
			<polygon fill="none" stroke="black" points="-17.4,-69 -17.4,-84 12.6,-84 12.6,-69 -17.4,-69" />
			<text text-anchor="start" x="-14.4" y="-74.6" font-family="Arial" font-size="8.00">0x00</text>
		</g>
		<!-- initial_1&#45;&gt;wait_for_in1_2 -->
		<g id="edge1" class="edge">
			<title>initial_1-&gt;wait_for_in1_2</title>
			<path fill="none" stroke="ForestGreen" d="M-141.355,-180.637C-126.25,-170.567 -109.668,-159.512 -94.0954,-149.13" />
			<polygon fill="ForestGreen" stroke="ForestGreen" points="-91.9431,-151.902 -85.564,-143.443 -95.826,-146.078 -91.9431,-151.902" />
			<text text-anchor="middle" x="-127.225" y="-167.484" font-family="Arial" font-size="8.00">false</text>
		</g>
		<!-- wait_for_in1_7 -->
		<g id="node3" class="node">
			<title>wait_for_in1_7</title>
			<polygon fill="LemonChiffon" stroke="none" points="-77.4,87 -77.4,70 12.6,70 12.6,87 -77.4,87" />
			<polygon fill="none" stroke="black" points="-77.4,87 -77.4,70 12.6,70 12.6,87 -77.4,87" />
			<text text-anchor="start" x="-61.4" y="80" font-family="Arial" font-weight="bold" font-size="10.00">wait_for_in1</text>
			<polygon fill="AliceBlue" stroke="none" points="-77.4,102 -77.4,87 -47.4,87 -47.4,102 -77.4,102" />
			<polygon fill="none" stroke="black" points="-77.4,102 -77.4,87 -47.4,87 -47.4,102 -77.4,102" />
			<text text-anchor="start" x="-74.4" y="96.4" font-family="Arial" font-size="8.00">Cycle:</text>
			<polygon fill="none" stroke="black" points="-47.4,102 -47.4,87 12.6,87 12.6,102 -47.4,102" />
			<text text-anchor="start" x="-44.4" y="96.4" font-family="Arial" font-size="8.00">7</text>
			<polygon fill="AliceBlue" stroke="none" points="-77.4,117 -77.4,102 -47.4,102 -47.4,117 -77.4,117" />
			<polygon fill="none" stroke="black" points="-77.4,117 -77.4,102 -47.4,102 -47.4,117 -77.4,117" />
			<text text-anchor="start" x="-74.4" y="111.4" font-family="Arial" font-size="8.00">ACU</text>
			<polygon fill="none" stroke="black" points="-47.4,117 -47.4,102 -17.4,102 -17.4,117 -47.4,117" />
			<text text-anchor="start" x="-44.4" y="111.4" font-family="Arial" font-size="8.00">Beg</text>
			<polygon fill="none" stroke="black" points="-17.4,117 -17.4,102 12.6,102 12.6,117 -17.4,117" />
			<text text-anchor="start" x="-14.4" y="111.4" font-family="Arial" font-size="8.00">End</text>
			<polygon fill="AliceBlue" stroke="none" points="-77.4,132 -77.4,117 -47.4,117 -47.4,132 -77.4,132" />
			<polygon fill="none" stroke="black" points="-77.4,132 -77.4,117 -47.4,117 -47.4,132 -77.4,132" />
			<text text-anchor="start" x="-74.4" y="126.4" font-family="Arial" font-size="8.00">A.reg</text>
			<polygon fill="none" stroke="black" points="-47.4,132 -47.4,117 -17.4,117 -17.4,132 -47.4,132" />
			<text text-anchor="start" x="-44.4" y="126.4" font-family="Arial" font-size="8.00">0x00</text>
			<polygon fill="none" stroke="black" points="-17.4,132 -17.4,117 12.6,117 12.6,132 -17.4,132" />
			<text text-anchor="start" x="-14.4" y="126.4" font-family="Arial" font-size="8.00">0x00</text>
			<polygon fill="AliceBlue" stroke="none" points="-77.4,147 -77.4,132 -47.4,132 -47.4,147 -77.4,147" />
			<polygon fill="none" stroke="black" points="-77.4,147 -77.4,132 -47.4,132 -47.4,147 -77.4,147" />
			<text text-anchor="start" x="-74.4" y="141.4" font-family="Arial" font-size="8.00">B.reg</text>
			<polygon fill="none" stroke="black" points="-47.4,147 -47.4,132 -17.4,132 -17.4,147 -47.4,147" />
			<text text-anchor="start" x="-44.4" y="141.4" font-family="Arial" font-size="8.00">0x00</text>
			<polygon fill="none" stroke="black" points="-17.4,147 -17.4,132 12.6,132 12.6,147 -17.4,147" />
			<text text-anchor="start" x="-14.4" y="141.4" font-family="Arial" font-size="8.00">0x00</text>
		</g>
		<!-- wait_for_in1_2&#45;&gt;wait_for_in1_7 -->
		<g id="edge5" class="edge">
			<title>wait_for_in1_2-&gt;wait_for_in1_7</title>
			<path fill="none" stroke="Gray" stroke-dasharray="5,2" d="M-32.4,-65.3254C-32.4,-27.4576 -32.4,27.5731 -32.4,65.414" />
		</g>
		<!-- dataRead_6 -->
		<g id="node4" class="node">
			<title>dataRead_6</title>
			<polygon fill="LemonChiffon" stroke="none" points="84.6,-21 84.6,-38 174.6,-38 174.6,-21 84.6,-21" />
			<polygon fill="none" stroke="black" points="84.6,-21 84.6,-38 174.6,-38 174.6,-21 84.6,-21" />
			<text text-anchor="start" x="106.6" y="-28" font-family="Arial" font-weight="bold" font-size="10.00">dataRead</text>
			<polygon fill="AliceBlue" stroke="none" points="84.6,-6 84.6,-21 114.6,-21 114.6,-6 84.6,-6" />
			<polygon fill="none" stroke="black" points="84.6,-6 84.6,-21 114.6,-21 114.6,-6 84.6,-6" />
			<text text-anchor="start" x="87.6" y="-11.6" font-family="Arial" font-size="8.00">Cycle:</text>
			<polygon fill="none" stroke="black" points="114.6,-6 114.6,-21 174.6,-21 174.6,-6 114.6,-6" />
			<text text-anchor="start" x="117.6" y="-11.6" font-family="Arial" font-size="8.00">6</text>
			<polygon fill="AliceBlue" stroke="none" points="84.6,9 84.6,-6 114.6,-6 114.6,9 84.6,9" />
			<polygon fill="none" stroke="black" points="84.6,9 84.6,-6 114.6,-6 114.6,9 84.6,9" />
			<text text-anchor="start" x="87.6" y="3.4" font-family="Arial" font-size="8.00">ACU</text>
			<polygon fill="none" stroke="black" points="114.6,9 114.6,-6 144.6,-6 144.6,9 114.6,9" />
			<text text-anchor="start" x="117.6" y="3.4" font-family="Arial" font-size="8.00">Beg</text>
			<polygon fill="none" stroke="black" points="144.6,9 144.6,-6 174.6,-6 174.6,9 144.6,9" />
			<text text-anchor="start" x="147.6" y="3.4" font-family="Arial" font-size="8.00">End</text>
			<polygon fill="AliceBlue" stroke="none" points="84.6,24 84.6,9 114.6,9 114.6,24 84.6,24" />
			<polygon fill="none" stroke="black" points="84.6,24 84.6,9 114.6,9 114.6,24 84.6,24" />
			<text text-anchor="start" x="87.6" y="18.4" font-family="Arial" font-size="8.00">A.reg</text>
			<polygon fill="none" stroke="black" points="114.6,24 114.6,9 144.6,9 144.6,24 114.6,24" />
			<text text-anchor="start" x="117.6" y="18.4" font-family="Arial" font-size="8.00">0x00</text>
			<polygon fill="none" stroke="black" points="144.6,24 144.6,9 174.6,9 174.6,24 144.6,24" />
			<text text-anchor="start" x="147.6" y="18.4" font-family="Arial" font-size="8.00">0x00</text>
			<polygon fill="AliceBlue" stroke="none" points="84.6,39 84.6,24 114.6,24 114.6,39 84.6,39" />
			<polygon fill="none" stroke="black" points="84.6,39 84.6,24 114.6,24 114.6,39 84.6,39" />
			<text text-anchor="start" x="87.6" y="33.4" font-family="Arial" font-size="8.00">B.reg</text>
			<polygon fill="none" stroke="black" points="114.6,39 114.6,24 144.6,24 144.6,39 114.6,39" />
			<text text-anchor="start" x="117.6" y="33.4" font-family="Arial" font-size="8.00">0x00</text>
			<polygon fill="none" stroke="black" points="144.6,39 144.6,24 174.6,24 174.6,39 144.6,39" />
			<text text-anchor="start" x="147.6" y="33.4" font-family="Arial" font-size="8.00">0x00</text>
		</g>
		<!-- wait_for_in1_2&#45;&gt;dataRead_6 -->
		<g id="edge2" class="edge">
			<title>wait_for_in1_2-&gt;dataRead_6</title>
			<path fill="none" stroke="ForestGreen" d="M20.6449,-72.6368C35.7495,-62.567 52.3324,-51.5117 67.9046,-41.1303" />
			<polygon fill="ForestGreen" stroke="ForestGreen" points="70.0569,-43.9019 76.436,-35.4427 66.174,-38.0776 70.0569,-43.9019" />
			<text text-anchor="middle" x="34.7747" y="-59.4835" font-family="Arial" font-size="8.00">false</text>
		</g>
		<!-- dataRead_11 -->
		<g id="node5" class="node">
			<title>dataRead_11</title>
			<polygon fill="LemonChiffon" stroke="none" points="84.6,195 84.6,178 174.6,178 174.6,195 84.6,195" />
			<polygon fill="none" stroke="black" points="84.6,195 84.6,178 174.6,178 174.6,195 84.6,195" />
			<text text-anchor="start" x="106.6" y="188" font-family="Arial" font-weight="bold" font-size="10.00">dataRead</text>
			<polygon fill="AliceBlue" stroke="none" points="84.6,210 84.6,195 114.6,195 114.6,210 84.6,210" />
			<polygon fill="none" stroke="black" points="84.6,210 84.6,195 114.6,195 114.6,210 84.6,210" />
			<text text-anchor="start" x="87.6" y="204.4" font-family="Arial" font-size="8.00">Cycle:</text>
			<polygon fill="none" stroke="black" points="114.6,210 114.6,195 174.6,195 174.6,210 114.6,210" />
			<text text-anchor="start" x="117.6" y="204.4" font-family="Arial" font-size="8.00">11</text>
			<polygon fill="AliceBlue" stroke="none" points="84.6,225 84.6,210 114.6,210 114.6,225 84.6,225" />
			<polygon fill="none" stroke="black" points="84.6,225 84.6,210 114.6,210 114.6,225 84.6,225" />
			<text text-anchor="start" x="87.6" y="219.4" font-family="Arial" font-size="8.00">ACU</text>
			<polygon fill="none" stroke="black" points="114.6,225 114.6,210 144.6,210 144.6,225 114.6,225" />
			<text text-anchor="start" x="117.6" y="219.4" font-family="Arial" font-size="8.00">Beg</text>
			<polygon fill="none" stroke="black" points="144.6,225 144.6,210 174.6,210 174.6,225 144.6,225" />
			<text text-anchor="start" x="147.6" y="219.4" font-family="Arial" font-size="8.00">End</text>
			<polygon fill="AliceBlue" stroke="none" points="84.6,240 84.6,225 114.6,225 114.6,240 84.6,240" />
			<polygon fill="none" stroke="black" points="84.6,240 84.6,225 114.6,225 114.6,240 84.6,240" />
			<text text-anchor="start" x="87.6" y="234.4" font-family="Arial" font-size="8.00">A.reg</text>
			<polygon fill="none" stroke="black" points="114.6,240 114.6,225 144.6,225 144.6,240 114.6,240" />
			<text text-anchor="start" x="117.6" y="234.4" font-family="Arial" font-size="8.00">0x00</text>
			<polygon fill="none" stroke="black" points="144.6,240 144.6,225 174.6,225 174.6,240 144.6,240" />
			<text text-anchor="start" x="147.6" y="234.4" font-family="Arial" font-size="8.00">0x00</text>
			<polygon fill="AliceBlue" stroke="none" points="84.6,255 84.6,240 114.6,240 114.6,255 84.6,255" />
			<polygon fill="none" stroke="black" points="84.6,255 84.6,240 114.6,240 114.6,255 84.6,255" />
			<text text-anchor="start" x="87.6" y="249.4" font-family="Arial" font-size="8.00">B.reg</text>
			<polygon fill="none" stroke="black" points="114.6,255 114.6,240 144.6,240 144.6,255 114.6,255" />
			<text text-anchor="start" x="117.6" y="249.4" font-family="Arial" font-size="8.00">0x00</text>
			<polygon fill="none" stroke="black" points="144.6,255 144.6,240 174.6,240 174.6,255 144.6,255" />
			<text text-anchor="start" x="147.6" y="249.4" font-family="Arial" font-size="8.00">0x00</text>
		</g>
		<!-- wait_for_in1_7&#45;&gt;dataRead_11 -->
		<g id="edge4" class="edge">
			<title>wait_for_in1_7-&gt;dataRead_11</title>
			<path fill="none" stroke="ForestGreen" d="M20.6449,143.363C35.7495,153.433 52.3324,164.488 67.9046,174.87" />
			<polygon fill="ForestGreen" stroke="ForestGreen" points="70.0569,172.098 76.436,180.557 66.174,177.922 70.0569,172.098" />
			<text text-anchor="middle" x="34.7747" y="156.516" font-family="Arial" font-size="8.00">false</text>
		</g>
		<!-- dataRead_6&#45;&gt;wait_for_in1_7 -->
		<g id="edge3" class="edge">
			<title>dataRead_6-&gt;wait_for_in1_7</title>
			<path fill="none" stroke="ForestGreen" d="M76.5551,35.3632C61.4505,45.433 44.8676,56.4883 29.2954,66.8697" />
			<polygon fill="ForestGreen" stroke="ForestGreen" points="31.026,69.9224 20.764,72.5573 27.1431,64.0981 31.026,69.9224" />
			<text text-anchor="middle" x="43.4253" y="48.5165" font-family="Arial" font-size="8.00">false</text>
		</g>
	</g>
</svg>